<?xml version="1.0" encoding="utf-8"?>
<!-- Generator: Adobe Illustrator 21.1.0, SVG Export Plug-In . SVG Version: 6.00 Build 0)  -->
<svg version="1.1" id="Layer_1" xmlns="http://www.w3.org/2000/svg" xmlns:xlink="http://www.w3.org/1999/xlink" x="0px" y="0px"
	 viewBox="0 0 400 128" style="enable-background:new 0 0 400 128;" xml:space="preserve">
<style type="text/css">
	.st0{fill-rule:evenodd;clip-rule:evenodd;fill:#141418;}
</style>
<g>
	<g>
		<path class="st0" d="M247.7,97c-22.8,16.9-56,25.8-84.5,25.8c-40,0-76-14.8-103.2-39.4c-2.1-1.9-0.2-4.6,2.3-3.1
			c29.4,17.1,65.7,27.4,103.3,27.4c25.3,0,53.2-5.3,78.8-16.1C248.3,90.1,251.5,94.3,247.7,97z"/>
		<path class="st0" d="M257.2,86.2c-2.9-3.7-19.3-1.8-26.7-0.9c-2.2,0.3-2.6-1.7-0.6-3.1c13.1-9.2,34.5-6.5,37-3.5
			c2.5,3.1-0.7,24.6-12.9,34.8c-1.9,1.6-3.7,0.7-2.8-1.3C254,105.4,260.1,89.9,257.2,86.2z"/>
	</g>
	<g>
		<path class="st0" d="M231.1,17.3V8.4c0-1.4,1-2.3,2.3-2.3l40,0c1.3,0,2.3,0.9,2.3,2.3l0,7.7c0,1.3-1.1,3-3,5.6l-20.7,29.6
			c7.7-0.2,15.8,1,22.8,4.9c1.6,0.9,2,2.2,2.1,3.5v9.5c0,1.3-1.4,2.8-2.9,2c-12.3-6.5-28.7-7.2-42.3,0.1c-1.4,0.7-2.8-0.8-2.8-2.1
			v-9.1c0-1.4,0-3.9,1.5-6.1l24-34.4l-20.9,0C232.1,19.6,231.1,18.6,231.1,17.3z"/>
		<path class="st0" d="M85.1,73.1H72.9c-1.2-0.1-2.1-0.9-2.2-2.1l0-62.5c0-1.2,1.1-2.2,2.3-2.2l11.3,0c1.2,0.1,2.1,1,2.2,2.1v8.2
			h0.2c3-7.9,8.5-11.6,16-11.6c7.6,0,12.4,3.7,15.8,11.6c3-7.9,9.7-11.6,16.8-11.6c5.1,0,10.7,2.1,14.1,6.8
			c3.9,5.3,3.1,12.9,3.1,19.6l0,39.4c0,1.2-1.1,2.2-2.3,2.2h-12.2c-1.2-0.1-2.2-1-2.2-2.2l0-33.1c0-2.6,0.2-9.2-0.3-11.7
			c-0.9-4.2-3.6-5.4-7.2-5.4c-3,0-6,2-7.3,5.1c-1.2,3.2-1.1,8.4-1.1,12v33.1c0,1.2-1.1,2.2-2.3,2.2h-12.2c-1.2-0.1-2.2-1-2.2-2.2
			l0-33.1c0-7,1.1-17.2-7.5-17.2c-8.7,0-8.4,10-8.4,17.2l0,33.1C87.5,72.1,86.4,73.1,85.1,73.1z"/>
		<path class="st0" d="M310.1,5c18.1,0,27.8,15.5,27.8,35.2c0,19.1-10.8,34.2-27.8,34.2c-17.7,0-27.4-15.5-27.4-34.8
			C282.7,20.1,292.5,5,310.1,5z M310.2,17.7c-9,0-9.5,12.2-9.5,19.8c0,7.6-0.1,23.9,9.4,23.9c9.4,0,9.9-13.1,9.9-21.2
			c0-5.3-0.2-11.6-1.8-16.6C316.8,19.4,314.1,17.7,310.2,17.7z"/>
		<path class="st0" d="M361.3,73.1h-12.1c-1.2-0.1-2.2-1-2.2-2.2l0-62.5c0.1-1.1,1.1-2,2.3-2l11.3,0c1.1,0.1,1.9,0.8,2.2,1.8v9.6
			h0.2C366.4,9,371.2,5,379.6,5c5.5,0,10.8,2,14.2,7.4c3.2,5,3.2,13.4,3.2,19.5v39.3c-0.1,1.1-1.1,2-2.3,2h-12.2
			c-1.1-0.1-2-0.9-2.2-2V37.2c0-6.8,0.8-16.8-7.6-16.8c-3,0-5.7,2-7,5c-1.7,3.8-1.9,7.6-1.9,11.8v33.6
			C363.7,72.1,362.6,73.1,361.3,73.1z"/>
		<path class="st0" d="M199.2,43.2c0,4.7,0.1,8.7-2.3,12.9c-1.9,3.4-5,5.5-8.4,5.5c-4.7,0-7.4-3.6-7.4-8.8
			c0-10.4,9.3-12.3,18.1-12.3V43.2z M211.4,72.9c-0.8,0.7-2,0.8-2.9,0.3c-4-3.4-4.8-4.9-7-8.1c-6.7,6.8-11.4,8.8-20.1,8.8
			c-10.2,0-18.2-6.3-18.2-19c0-9.9,5.4-16.6,13-19.9c6.6-2.9,15.8-3.4,22.9-4.2v-1.6c0-2.9,0.2-6.3-1.5-8.8
			c-1.5-2.2-4.3-3.2-6.8-3.2c-4.6,0-8.8,2.4-9.8,7.3c-0.2,1.1-1,2.2-2.1,2.2l-11.8-1.3c-1-0.2-2.1-1-1.8-2.5
			C168.1,8.7,181,4.4,192.6,4.4c5.9,0,13.7,1.6,18.3,6.1c5.9,5.5,5.4,12.9,5.4,20.9v19c0,5.7,2.4,8.2,4.6,11.3c0.8,1.1,1,2.4,0,3.2
			C218.3,66.9,213.9,70.8,211.4,72.9L211.4,72.9z"/>
		<path class="st0" d="M39.6,43.2c0,4.7,0.1,8.7-2.3,12.9c-1.9,3.4-5,5.5-8.4,5.5c-4.7,0-7.4-3.6-7.4-8.8c0-10.4,9.3-12.3,18.1-12.3
			V43.2z M51.9,72.9c-0.8,0.7-2,0.8-2.9,0.3c-4-3.4-4.8-4.9-7-8.1c-6.7,6.8-11.4,8.8-20.1,8.8c-10.2,0-18.2-6.3-18.2-19
			c0-9.9,5.4-16.6,13-19.9c6.6-2.9,15.8-3.4,22.9-4.2v-1.6c0-2.9,0.2-6.3-1.5-8.8c-1.5-2.2-4.3-3.2-6.8-3.2c-4.6,0-8.8,2.4-9.8,7.3
			c-0.2,1.1-1,2.2-2.1,2.2L7.6,25.5c-1-0.2-2.1-1-1.8-2.5C8.5,8.7,21.4,4.4,33,4.4c5.9,0,13.7,1.6,18.3,6.1
			c5.9,5.5,5.4,12.9,5.4,20.9v19c0,5.7,2.4,8.2,4.6,11.3c0.8,1.1,1,2.4,0,3.2C58.8,66.9,54.3,70.8,51.9,72.9L51.9,72.9z"/>
	</g>
</g>
</svg>
