<?xml version="1.0" encoding="utf-8"?>
<!-- Generator: Adobe Illustrator 21.1.0, SVG Export Plug-In . SVG Version: 6.00 Build 0)  -->
<svg version="1.1" xmlns="http://www.w3.org/2000/svg" xmlns:xlink="http://www.w3.org/1999/xlink" x="0px" y="0px"
	 viewBox="0 0 163 289.7" style="enable-background:new 0 0 163 289.7;" xml:space="preserve">
<style type="text/css">
	.st0{fill:#070707;}
	.st1{fill:none;stroke:url(#SVGID_1_);stroke-width:4;stroke-miterlimit:10;}
	.st2{fill:#FFFFFF;}
</style>
<g id="Layer_2_1_">
	<rect x="3.5" y="3.3" class="st0" width="156.5" height="283.3"/>
</g>
<g id="Layer_1">
	<g id="Layer_1_1_">
		
			<linearGradient id="SVGID_1_" gradientUnits="userSpaceOnUse" x1="164.022" y1="29.8341" x2="-0.522" y2="314.8326" gradientTransform="matrix(1 0 0 -1 0 317.3333)">
			<stop  offset="0.1832" style="stop-color:#3107AD"/>
			<stop  offset="0.2803" style="stop-color:#400DA2"/>
			<stop  offset="0.4667" style="stop-color:#671E87"/>
			<stop  offset="0.7233" style="stop-color:#A6395A"/>
			<stop  offset="1" style="stop-color:#F15A24"/>
		</linearGradient>
		<rect x="3.5" y="3.3" class="st1" width="156.5" height="283.3"/>
	</g>
	<g id="Layer_2">
		<g>
			<path class="st2" d="M84,240.7v18.6H41.3v-17.7c0-8.9,5-13.6,12.4-13.6c4.9,0,7.6,3.4,8.5,4.7c1.1-1.7,3.3-5.3,9.3-5.3
				C79.6,227.3,84,233,84,240.7z M50.7,242.2v6.5h7v-6.5c0-2.9-1.8-3.8-3.5-3.8S50.7,239.3,50.7,242.2z M67.1,241.7v7.1h7.5v-7.1
				c0-2.9-2-3.8-3.8-3.8C69,237.8,67.1,238.8,67.1,241.7z"/>
			<path class="st2" d="M84,220.1H41.3v-10.5h33.4v-17.9H84V220.1z"/>
			<path class="st2" d="M84,161.6l-6.4,2v13.1l6.4,2.1v11l-42.7-15.5v-8.1L84,150.7V161.6z M57.5,170l11.4,3.8v-7.4L57.5,170z"/>
			<path class="st2" d="M84.4,132.1c0,5.2-1.6,8.8-4.7,11.9c-4.4,4.4-9.8,4.4-17,4.4s-12.7,0-17-4.4c-3.1-3.1-4.7-6.7-4.7-11.9
				c0-8.1,4.5-14.6,13.9-16.1v10.7c-2.4,0.7-4.6,2-4.6,5.5c0,1.9,0.8,3.4,1.8,4.1c1.3,1,2.8,1.6,10.6,1.6s9.3-0.7,10.6-1.6
				c1-0.8,1.8-2.2,1.8-4.1c0-3.5-2.2-4.8-4.6-5.5v-10.8C79.9,117.5,84.4,124,84.4,132.1z"/>
			<path class="st2" d="M84,86.6l-17.5,9.8l4.1,3.6H84v10.4H41.3V100h15.1L41.3,87.7V74.8l17.3,14.6L84,74.3V86.6z"/>
			<path class="st2" d="M136,259.3H93.3v-10.5h33.4v-17.9h9.4v28.4H136z"/>
			<path class="st2" d="M136,226.2H93.3v-10.5H136V226.2z"/>
			<path class="st2" d="M136.4,196.4c0,6.5-1.2,11.9-5.6,16.2l-6.7-6.7c2.2-2.2,3-6.1,3-9.5c0-4.1-1.4-6.1-3.8-6.1
				c-1,0-1.9,0.2-2.5,0.8c-0.5,0.5-1,1.4-1.1,2.8l-0.7,5.2c-0.5,3.8-1.8,6.7-3.8,8.6c-2,2-4.9,2.9-8.6,2.9
				c-7.8,0-13.5-5.9-13.5-15.6c0-6.1,1.4-10.7,5.1-14.4l6.6,6.6c-2.2,2.2-2.5,4.7-2.5,8.1c0,3.7,2.1,5.2,4,5.2c0.5,0,1.3-0.2,2-0.8
				c0.5-0.5,1.1-1.4,1.3-2.9l0.7-5.2c0.5-3.8,1.7-6.6,3.5-8.4c2.2-2.3,5.4-3.2,9.4-3.2C131.6,179.9,136.4,187.4,136.4,196.4z"/>
			<path class="st2" d="M102.7,156H136v10.5h-33.4V177h-9.4v-31.5h9.4L102.7,156L102.7,156z"/>
			<path class="st2" d="M136,140.9H93.3v-29h9.4v18.5h7.1v-15.8h9.4v15.8h7.5v-18.5h9.4v29H136z"/>
			<path class="st2" d="M128.8,76.2c4.7,2.9,7.2,7.4,7.2,13.9v15.8H93.3V90.1c0-6.4,2.5-10.9,7.2-13.9c3.4-2.1,6.8-2.1,14.2-2.1
				S125.4,74.1,128.8,76.2z M105.1,85.8c-1.4,1-2.4,2.4-2.4,5v4.6h24v-4.6c0-2.6-1-4.1-2.4-5c-1.2-0.8-2.3-1.1-9.6-1.1
				C107.5,84.6,106.3,84.9,105.1,85.8z"/>
		</g>
	</g>
</g>
</svg>
