<svg id="Layer_1" data-name="Layer 1" xmlns="http://www.w3.org/2000/svg" xmlns:xlink="http://www.w3.org/1999/xlink" viewBox="0 0 293.18 41.92"><defs><style>.cls-1{fill:#fff;}.cls-2{fill:none;stroke-miterlimit:10;stroke-width:4px;stroke:url(#linear-gradient);}</style><linearGradient id="linear-gradient" x1="184.18" y1="104.86" x2="109.19" y2="-25.02" gradientUnits="userSpaceOnUse"><stop offset="0.18" stop-color="#3107ad"/><stop offset="0.28" stop-color="#400da2"/><stop offset="0.47" stop-color="#671e87"/><stop offset="0.72" stop-color="#a6395a"/><stop offset="1" stop-color="#f15a24"/></linearGradient></defs><title>app-icon_alt_white_line</title><path class="cls-1" d="M18.08,37.12H3.82V4.36H17.39c6.81,0,10.45,3.82,10.45,9.48a7.89,7.89,0,0,1-3.59,6.49,7.62,7.62,0,0,1,4,7.13C28.3,33.72,23.93,37.12,18.08,37.12Zm-1.2-25.54h-5v5.34h5c2.21,0,2.9-1.38,2.9-2.67S19.09,11.58,16.89,11.58Zm.41,12.56H11.87V29.9H17.3A2.7,2.7,0,0,0,20.24,27,2.67,2.67,0,0,0,17.3,24.15Z" transform="translate(-3.82 -4.08)"/><path class="cls-1" d="M33.87,37.12V4.36h8.05V29.94H55.68v7.18Z" transform="translate(-3.82 -4.08)"/><path class="cls-1" d="M78.69,37.12l-1.52-4.88H67.1l-1.61,4.88H57.06L69,4.36H75.2L87.11,37.12ZM72.3,16.78l-2.95,8.74h5.71Z" transform="translate(-3.82 -4.08)"/><path class="cls-1" d="M101.38,37.4a12,12,0,0,1-9.11-3.59c-3.36-3.36-3.36-7.55-3.36-13.07s0-9.71,3.36-13.07a12,12,0,0,1,9.11-3.59c6.21,0,11.18,3.45,12.38,10.68h-8.19c-.51-1.84-1.52-3.5-4.19-3.5a3.91,3.91,0,0,0-3.18,1.38c-.74,1-1.24,2.12-1.24,8.1s.51,7.13,1.24,8.1a3.91,3.91,0,0,0,3.18,1.38c2.67,0,3.68-1.66,4.19-3.5h8.19C112.57,33.95,107.6,37.4,101.38,37.4Z" transform="translate(-3.82 -4.08)"/><path class="cls-1" d="M136.27,37.12l-7.55-13.44L126,26.86V37.12h-8V4.36h8V16l9.48-11.6h9.85L134.1,17.61l11.55,19.51Z" transform="translate(-3.82 -4.08)"/><path class="cls-1" d="M149,37.12V4.36H157V29.94h13.76v7.18Z" transform="translate(-3.82 -4.08)"/><path class="cls-1" d="M175.48,37.12V4.36h8.05V37.12Z" transform="translate(-3.82 -4.08)"/><path class="cls-1" d="M199.5,37.4c-5,0-9.11-.92-12.42-4.33l5.15-5.15c1.7,1.7,4.69,2.3,7.32,2.3,3.18,0,4.69-1.06,4.69-2.95a2.74,2.74,0,0,0-.64-1.93,3.66,3.66,0,0,0-2.16-.87l-4-.55A11.08,11.08,0,0,1,190.9,21a9.07,9.07,0,0,1-2.25-6.58c0-6,4.51-10.35,12-10.35,4.69,0,8.24,1.1,11,3.91l-5.06,5.06c-1.7-1.7-3.59-1.93-6.21-1.93-2.81,0-4,1.61-4,3a2.16,2.16,0,0,0,.64,1.52,3.69,3.69,0,0,0,2.25,1l4,.55c2.95.41,5.06,1.33,6.44,2.71,1.75,1.7,2.44,4.14,2.44,7.18C212.16,33.76,206.4,37.4,199.5,37.4Z" transform="translate(-3.82 -4.08)"/><path class="cls-1" d="M231.63,11.54V37.12h-8.05V11.54h-8.05V4.36h24.16v7.18Z" transform="translate(-3.82 -4.08)"/><path class="cls-1" d="M244.37,37.12V4.36h22.27v7.18H252.43V17h12.15v7.18H252.43v5.75h14.22v7.18Z" transform="translate(-3.82 -4.08)"/><path class="cls-1" d="M295.13,31.6c-2.25,3.64-5.71,5.52-10.63,5.52H272.35V4.36H284.5c4.92,0,8.38,1.89,10.63,5.52,1.61,2.62,1.61,5.2,1.61,10.86S296.75,29,295.13,31.6Zm-7.32-18.22A4.18,4.18,0,0,0,284,11.54h-3.54V29.94H284a4.18,4.18,0,0,0,3.87-1.84c.64-.92.87-1.79.87-7.36S288.46,14.3,287.82,13.38Z" transform="translate(-3.82 -4.08)"/><line class="cls-2" x1="0.18" y1="39.92" x2="293.18" y2="39.92"/></svg>