<?xml version="1.0" standalone="no"?>
<!DOCTYPE svg PUBLIC "-//W3C//DTD SVG 1.1//EN" "http://www.w3.org/Graphics/SVG/1.1/DTD/svg11.dtd" >
<svg xmlns="http://www.w3.org/2000/svg" xmlns:xlink="http://www.w3.org/1999/xlink" version="1.1">
<metadata>
Created by FontForge 20170910 at Sat Aug  1 15:52:03 2009
 By Jimmy Wärting
2000 Albert-Jan Pool, published by Fontshop International for the FontFont library.
</metadata>
<defs>
<font id="DIN-RegularItalic" horiz-adv-x="496" >
  <font-face 
    font-family="DIN-RegularItalic"
    font-weight="500"
    font-style="italic"
    font-stretch="normal"
    units-per-em="1000"
    panose-1="0 0 0 0 0 0 0 0 0 0"
    ascent="800"
    descent="-200"
    x-height="493"
    cap-height="712"
    bbox="-148 -225 1066 984"
    underline-thickness="49"
    underline-position="-133"
    stemh="58"
    stemv="53"
    unicode-range="U+0020-FB02"
  />
<missing-glyph horiz-adv-x="1000" 
 />
    <glyph glyph-name=".notdef" horiz-adv-x="1000" 
 />
    <glyph glyph-name="space" unicode=" " horiz-adv-x="236" 
 />
    <glyph glyph-name="exclam" unicode="!" horiz-adv-x="301" 
d="M297 712l-112 -515h-60l91 515h81zM176 86l-16 -86h-83l17 86h82z" />
    <glyph glyph-name="quotedbl" unicode="&#x22;" horiz-adv-x="403" 
d="M414 712l-35 -172h-76l35 172h76zM252 712l-34 -172h-76l35 172h75z" />
    <glyph glyph-name="numbersign" unicode="#" horiz-adv-x="627" 
d="M629 498l-13 -63h-90l-53 -146h88l-12 -62h-97l-80 -227h-72l79 227h-152l-79 -227h-74l80 227h-84l12 62h93l53 146h-91l13 63h98l76 216h73l-75 -216h152l75 216h73l-75 -216h82zM453 435h-153l-52 -146h152z" />
    <glyph glyph-name="dollar" unicode="$" horiz-adv-x="567" 
d="M560 636l-52 -45c-31 36 -65 59 -124 63l-51 -267l25 -5c105 -23 154 -76 154 -171c0 -138 -117 -212 -250 -217l-20 -108h-57l21 109c-83 5 -138 34 -190 97l55 48c39 -50 84 -77 150 -81l52 272c-5 1 -21 5 -21 5c-86 21 -143 68 -143 157c0 95 67 216 233 225l17 88
h57l-17 -90c62 -5 117 -28 161 -80zM439 207c0 79 -48 99 -118 114l-50 -263c96 9 168 67 168 149zM334 655c-94 -9 -153 -82 -153 -159c0 -63 51 -87 104 -98z" />
    <glyph glyph-name="percent" unicode="%" horiz-adv-x="800" 
d="M388 614c0 -14 -1 -25 -3 -35l-19 -99c-16 -84 -64 -135 -151 -135c-49 0 -108 26 -108 105c0 14 1 25 3 35l18 99c16 84 65 135 152 135c49 0 108 -26 108 -105zM737 263c0 -14 -1 -25 -3 -35l-18 -99c-16 -84 -65 -135 -152 -135c-49 0 -108 26 -108 105
c0 14 1 25 3 35l19 99c16 84 64 135 151 135c49 0 108 -26 108 -105zM682 712l-459 -712h-60l458 712h61zM334 610c0 35 -15 60 -61 60c-54 0 -81 -37 -90 -86l-19 -103c-2 -9 -3 -16 -3 -27c0 -35 15 -60 61 -60c54 0 80 37 89 86l20 103c2 9 3 16 3 27zM683 259
c0 35 -15 60 -61 60c-54 0 -80 -37 -89 -86l-20 -103c-2 -9 -2 -16 -2 -27c0 -35 14 -60 60 -60c54 0 81 37 90 86l19 103c2 9 3 16 3 27z" />
    <glyph glyph-name="ampersand" unicode="&#x26;" horiz-adv-x="704" 
d="M617 348c-14 -85 -40 -153 -104 -219l80 -129h-87l-48 78c-38 -35 -115 -84 -214 -84c-104 0 -184 59 -184 169c0 123 79 185 194 255c-19 31 -47 74 -47 131c0 79 51 169 173 169c91 0 132 -64 132 -130c0 -59 -34 -106 -106 -151l-57 -36l128 -215c37 41 57 87 70 162
h70zM424 133l-139 231c-94 -58 -152 -105 -152 -194c0 -65 46 -112 115 -112c52 0 115 20 176 75zM442 587c0 47 -30 69 -66 69c-58 0 -96 -47 -96 -108c0 -26 12 -55 38 -96c2 1 40 25 40 25c47 29 84 57 84 110z" />
    <glyph glyph-name="quoteright" unicode="&#x2019;" horiz-adv-x="250" 
d="M261 712l-17 -85l-100 -80l33 165h84z" />
    <glyph glyph-name="parenleft" unicode="(" horiz-adv-x="284" 
d="M324 753c-31 -26 -49 -44 -62 -62c-14 -20 -24 -39 -30 -72l-101 -509c-4 -20 -7 -41 -7 -56c0 -22 5 -54 45 -101l-52 -47c-55 64 -64 106 -64 138c0 18 2 37 9 70l102 511c7 33 14 63 37 97c20 29 53 60 83 84z" />
    <glyph glyph-name="parenright" unicode=")" horiz-adv-x="284" 
d="M272 668c0 -18 -1 -37 -8 -70l-102 -511c-7 -33 -15 -63 -38 -97c-20 -29 -53 -60 -83 -84l-40 53c31 26 49 44 62 62c14 20 24 39 30 72l102 509c4 20 7 41 7 56c0 22 -6 54 -46 101l53 47c55 -64 63 -106 63 -138z" />
    <glyph glyph-name="asterisk" unicode="*" horiz-adv-x="451" 
d="M455 566l-124 -39l99 -83l-35 -41l-95 89l-23 -129l-54 11l29 127l-121 -45l-18 51l124 39l-99 83l35 41l95 -88l23 128l54 -11l-29 -127l121 45z" />
    <glyph glyph-name="plus" unicode="+" 
d="M458 299l-13 -64h-165l-35 -177h-66l35 177h-166l12 64h167l36 177h65l-35 -177h165z" />
    <glyph glyph-name="comma" unicode="," horiz-adv-x="252" 
d="M138 89l-30 -153l-101 -80l47 233h84z" />
    <glyph glyph-name="hyphen" unicode="-" horiz-adv-x="405" 
d="M345 302l-13 -65h-262l13 65h262z" />
    <glyph glyph-name="period" unicode="." horiz-adv-x="257" 
d="M143 95l-18 -95h-91l19 95h90z" />
    <glyph glyph-name="slash" unicode="/" horiz-adv-x="341" 
d="M450 786l-442 -860h-72l443 860h71z" />
    <glyph glyph-name="zero" unicode="0" 
d="M493 563c0 -14 -2 -32 -5 -47l-64 -322c-32 -160 -142 -200 -220 -200c-80 0 -155 48 -155 155c0 14 2 32 5 47l63 322c32 160 142 200 220 200c80 0 156 -48 156 -155zM423 561c0 69 -45 95 -88 95c-58 0 -128 -33 -148 -137l-63 -324c-3 -14 -6 -29 -6 -44
c0 -69 46 -95 89 -95c58 0 128 33 148 137l63 324c3 14 5 29 5 44z" />
    <glyph glyph-name="one" unicode="1" 
d="M409 712l-143 -712h-70l127 629l-152 -114l16 85l151 112h71z" />
    <glyph glyph-name="two" unicode="2" 
d="M496 555c0 -85 -45 -137 -90 -185l-289 -308h291l-12 -62h-380l13 62l333 356c43 46 63 81 63 136c0 67 -35 102 -95 102c-64 0 -123 -35 -143 -128h-71c24 126 105 190 217 190c100 0 163 -58 163 -163z" />
    <glyph glyph-name="three" unicode="3" 
d="M482 564c0 -88 -42 -168 -124 -199c52 -20 76 -62 76 -129c0 -121 -85 -243 -232 -243c-119 0 -174 67 -174 157c0 8 0 18 1 28h69c-1 -7 -2 -13 -2 -22c0 -58 36 -101 106 -101c94 0 162 83 162 180c0 65 -34 99 -109 99h-16l12 60h16c87 0 146 79 146 167
c0 59 -35 96 -98 96c-65 0 -121 -47 -140 -117h-72c32 122 116 179 221 179c95 0 158 -59 158 -155z" />
    <glyph glyph-name="four" unicode="4" 
d="M450 179l-14 -64h-84l-23 -115h-68l23 115h-273l12 64l347 533h77l-346 -533h195l39 196h69l-39 -196h85z" />
    <glyph glyph-name="five" unicode="5" 
d="M516 712l-12 -62h-280l-45 -226c36 34 72 46 126 46c101 0 145 -69 145 -149c0 -28 -4 -58 -9 -86c-15 -77 -36 -140 -80 -184c-36 -36 -84 -58 -148 -58c-116 0 -160 71 -160 149c0 3 0 15 1 26h68c-1 -8 -1 -14 -1 -21c0 -53 30 -92 91 -92c104 0 139 82 158 180
c5 27 9 53 9 77c0 56 -21 98 -87 98c-55 0 -102 -22 -131 -72h-62l75 374h342z" />
    <glyph glyph-name="six" unicode="6" 
d="M432 224c0 -133 -94 -230 -206 -230c-128 0 -176 91 -176 178c0 63 19 111 74 193l231 347h76l-215 -321c16 6 32 11 55 11c101 0 161 -74 161 -178zM361 223c0 67 -36 121 -103 121c-97 0 -139 -98 -139 -167c0 -67 36 -121 103 -121c90 0 139 87 139 167z" />
    <glyph glyph-name="seven" unicode="7" 
d="M544 712l-12 -62l-358 -650h-77l358 650h-237l-21 -107h-68l33 169h382z" />
    <glyph glyph-name="eight" unicode="8" 
d="M494 557c0 -85 -47 -160 -122 -193c46 -32 70 -74 70 -142c0 -113 -76 -228 -231 -228c-91 0 -175 53 -175 170c0 95 46 170 139 210c-35 26 -60 63 -60 120c0 128 91 224 216 224c93 0 163 -61 163 -161zM372 224c0 70 -44 113 -108 113c-95 0 -158 -75 -158 -168
c0 -70 45 -113 109 -113c97 0 157 74 157 168zM424 556c0 59 -35 100 -97 100c-91 0 -143 -83 -143 -158c0 -59 36 -100 98 -100c91 0 142 83 142 158z" />
    <glyph glyph-name="nine" unicode="9" 
d="M491 540c0 -63 -20 -111 -75 -193l-231 -347h-75l214 321c-16 -6 -31 -11 -54 -11c-101 0 -161 74 -161 178c0 133 94 230 206 230c128 0 176 -91 176 -178zM422 535c0 67 -37 121 -104 121c-90 0 -138 -87 -138 -167c0 -67 36 -121 103 -121c97 0 139 98 139 167z" />
    <glyph glyph-name="colon" unicode=":" horiz-adv-x="282" 
d="M227 395l-19 -95h-91l20 95h90zM170 95l-19 -95h-90l19 95h90z" />
    <glyph glyph-name="semicolon" unicode=";" horiz-adv-x="282" 
d="M167 89l-30 -153l-101 -80l46 233h85zM228 395l-19 -95h-90l19 95h90z" />
    <glyph glyph-name="less" unicode="&#x3c;" 
d="M436 471l-15 -78l-261 -124l213 -126l-14 -71l-281 171l13 62z" />
    <glyph glyph-name="equal" unicode="=" 
d="M443 219l-14 -65h-396l13 65h397zM475 384l-13 -64h-398l14 64h397z" />
    <glyph glyph-name="greater" unicode="&#x3e;" 
d="M431 293l-13 -62l-344 -166l15 78l260 124l-213 126l15 71z" />
    <glyph glyph-name="question" unicode="?" horiz-adv-x="474" 
d="M491 571c0 -63 -28 -109 -70 -157l-101 -118c-15 -17 -25 -42 -29 -58l-10 -42h-70l10 45c8 38 19 62 48 95l100 115c33 38 51 69 51 116c0 48 -30 89 -89 89c-66 0 -116 -44 -131 -116h-72c21 112 101 178 214 178c79 0 149 -54 149 -147zM272 86l-16 -86h-83l17 86h82z
" />
    <glyph glyph-name="at" unicode="@" horiz-adv-x="679" 
d="M667 551c0 -16 -4 -45 -7 -60l-98 -491h-66l11 55c-40 -48 -82 -62 -136 -62c-94 0 -138 65 -138 142c0 29 4 61 12 103c18 88 36 143 74 185c36 39 89 60 140 60c58 0 97 -27 118 -65l16 80c4 18 6 34 6 48c0 29 -6 50 -21 69c-21 27 -50 39 -97 39h-122
c-47 0 -82 -13 -113 -40c-33 -29 -48 -62 -59 -116l-67 -336c-4 -18 -7 -37 -7 -53c0 -27 14 -48 38 -70l-53 -46c-38 37 -53 66 -53 109c0 17 4 43 7 59l66 335c17 86 42 128 80 163c36 34 95 54 160 54h140c63 0 108 -21 136 -56c22 -28 33 -62 33 -106zM553 328
c0 43 -16 95 -86 95c-97 0 -131 -75 -154 -185c-7 -33 -12 -65 -12 -90c0 -43 17 -95 87 -95c97 0 131 75 154 185c7 33 11 65 11 90z" />
    <glyph glyph-name="A" unicode="A" horiz-adv-x="581" 
d="M521 0h-74l-22 162h-296l-87 -162h-78l389 712h61zM418 223l-53 384l-204 -384h257z" />
    <glyph glyph-name="B" unicode="B" horiz-adv-x="636" 
d="M610 552c0 -62 -28 -149 -133 -189c53 -25 83 -67 83 -135c0 -135 -97 -228 -230 -228h-281l143 712h239c153 0 179 -99 179 -160zM487 226c0 68 -44 105 -113 105h-186l-54 -267h194c93 0 159 67 159 162zM536 547c0 48 -21 101 -114 101h-170l-51 -252h178
c99 0 157 70 157 151z" />
    <glyph glyph-name="C" unicode="C" horiz-adv-x="607" 
d="M592 509h-73c0 88 -49 146 -131 146c-55 0 -100 -22 -138 -60c-40 -40 -57 -98 -84 -239c-18 -93 -24 -137 -24 -168c0 -83 62 -131 134 -131c98 0 162 72 190 146h74c-42 -132 -146 -209 -267 -209c-112 0 -204 69 -204 192c0 25 4 66 24 170c30 160 47 225 106 284
c47 47 117 78 189 78c136 0 203 -88 204 -209z" />
    <glyph glyph-name="D" unicode="D" horiz-adv-x="639" 
d="M613 518c0 -36 -5 -70 -21 -154c-32 -168 -58 -241 -122 -299c-48 -43 -114 -65 -185 -65h-236l143 712h222c96 0 199 -44 199 -194zM541 515c0 80 -43 134 -141 134h-148l-118 -586h147c51 0 101 13 143 51c43 39 68 106 95 250c16 83 22 117 22 151z" />
    <glyph glyph-name="E" unicode="E" horiz-adv-x="572" 
d="M611 712l-13 -63h-346l-52 -258h297l-12 -63h-297l-54 -265h353l-12 -63h-426l143 712h419z" />
    <glyph glyph-name="F" unicode="F" horiz-adv-x="550" 
d="M611 712l-13 -63h-346l-53 -269h296l-13 -63h-297l-64 -317h-72l143 712h419z" />
    <glyph glyph-name="G" unicode="G" horiz-adv-x="619" 
d="M593 508h-73c0 90 -51 147 -131 147c-51 0 -98 -19 -139 -60c-39 -39 -57 -92 -85 -239c-18 -95 -23 -134 -23 -166c0 -92 73 -133 137 -133c73 0 170 52 197 194l12 59h-167l11 62h239l-21 -113c-16 -84 -42 -141 -89 -188c-43 -43 -107 -77 -187 -77
c-111 0 -205 71 -205 192c0 34 6 76 24 170c32 169 48 226 105 283c46 46 117 79 191 79c137 0 203 -91 204 -210z" />
    <glyph glyph-name="H" unicode="H" horiz-adv-x="661" 
d="M657 712l-143 -712h-72l66 328h-320l-67 -328h-72l143 712h72l-63 -321h320l64 321h72z" />
    <glyph glyph-name="I" unicode="I" horiz-adv-x="268" 
d="M264 712l-143 -712h-72l143 712h72z" />
    <glyph glyph-name="J" unicode="J" horiz-adv-x="476" 
d="M482 712l-100 -499c-29 -145 -120 -219 -243 -219c-72 0 -119 26 -151 66l53 45c26 -31 55 -48 104 -48c81 0 145 56 167 168l97 487h73z" />
    <glyph glyph-name="K" unicode="K" horiz-adv-x="621" 
d="M667 712l-268 -279l164 -433h-79l-142 383l-181 -183l-40 -200h-72l143 712h72l-81 -405l393 405h91z" />
    <glyph glyph-name="L" unicode="L" horiz-adv-x="546" 
d="M482 63l-12 -63h-421l143 712h72l-130 -649h348z" />
    <glyph glyph-name="M" unicode="M" horiz-adv-x="775" 
d="M772 712l-143 -712h-73l110 542l-268 -414h-62l-104 420l-110 -548h-73l143 712h70l119 -495l320 495h71z" />
    <glyph glyph-name="N" unicode="N" horiz-adv-x="696" 
d="M692 712l-143 -712h-67l-245 577l-116 -577h-72l143 712h67l245 -577l115 577h73z" />
    <glyph glyph-name="O" unicode="O" horiz-adv-x="617" 
d="M590 526c0 -31 -7 -72 -25 -170c-30 -160 -48 -225 -106 -283c-49 -49 -120 -79 -193 -79c-114 0 -197 77 -197 192c0 31 6 72 24 170c30 160 48 225 106 283c49 49 120 79 193 79c114 0 198 -77 198 -192zM516 522c0 88 -63 133 -126 133c-55 0 -103 -22 -141 -61
c-37 -37 -55 -88 -83 -238c-18 -95 -24 -134 -24 -166c0 -88 63 -133 126 -133c55 0 103 22 141 61c37 37 55 88 83 238c18 95 24 134 24 166z" />
    <glyph glyph-name="P" unicode="P" horiz-adv-x="598" 
d="M615 540c0 -135 -93 -242 -252 -242h-182l-60 -298h-72l143 712h242c132 0 181 -85 181 -172zM542 537c0 58 -31 111 -118 111h-173l-57 -287h172c104 0 176 74 176 176z" />
    <glyph glyph-name="Q" unicode="Q" horiz-adv-x="617" 
d="M590 526c0 -31 -7 -72 -25 -170c-29 -153 -46 -217 -97 -274l60 -78l-49 -43l-61 79c-43 -29 -96 -46 -152 -46c-114 0 -197 77 -197 192c0 31 6 72 24 170c30 160 48 225 106 283c49 49 120 79 193 79c114 0 198 -77 198 -192zM516 522c0 88 -63 133 -126 133
c-55 0 -103 -22 -141 -61c-37 -37 -55 -88 -83 -238c-18 -95 -24 -134 -24 -166c0 -88 63 -133 126 -133c41 0 78 13 110 37l-71 92l49 43l69 -89c28 37 43 91 67 216c18 95 24 134 24 166z" />
    <glyph glyph-name="R" unicode="R" horiz-adv-x="626" 
d="M614 548c0 -104 -67 -200 -188 -223l104 -325h-80l-98 320h-166l-65 -320h-72l143 712h245c135 0 177 -82 177 -164zM541 544c0 64 -37 104 -113 104h-176l-54 -266h178c109 0 165 83 165 162z" />
    <glyph glyph-name="S" unicode="S" horiz-adv-x="559" 
d="M552 636l-52 -44c-34 39 -71 64 -143 64c-110 0 -176 -79 -176 -160c0 -56 43 -84 102 -98l67 -15c107 -25 154 -74 154 -173c0 -140 -122 -216 -268 -216c-100 0 -162 29 -220 98l55 48c43 -54 94 -82 172 -82c104 0 188 61 188 149c0 74 -44 97 -101 110l-67 16
c-69 16 -154 56 -154 160c0 100 74 225 255 225c73 0 138 -23 188 -82z" />
    <glyph glyph-name="T" unicode="T" horiz-adv-x="520" 
d="M585 712l-13 -64h-194l-130 -648h-73l130 648h-196l13 64h463z" />
    <glyph glyph-name="U" unicode="U" horiz-adv-x="649" 
d="M654 712l-95 -478c-31 -156 -139 -240 -279 -240c-95 0 -198 58 -198 193c0 21 4 45 7 61l92 464h73l-94 -471c-2 -11 -5 -34 -5 -51c0 -64 36 -132 132 -132c90 0 177 60 202 188l92 466h73z" />
    <glyph glyph-name="V" unicode="V" horiz-adv-x="519" 
d="M604 712l-361 -712h-60l-83 712h73l64 -582l288 582h79z" />
    <glyph glyph-name="W" unicode="W" horiz-adv-x="815" 
d="M890 712l-309 -712h-68l-38 573l-267 -573h-67l-33 712h75l20 -577l264 577h65l37 -577l243 577h78z" />
    <glyph glyph-name="X" unicode="X" horiz-adv-x="526" 
d="M587 712l-262 -351l141 -361h-81l-112 302l-223 -302h-85l279 371l-130 341h81l101 -284l205 284h86z" />
    <glyph glyph-name="Y" unicode="Y" horiz-adv-x="490" 
d="M575 712l-282 -421l-59 -291h-73l60 296l-121 416h76l94 -344l224 344h81z" />
    <glyph glyph-name="Z" unicode="Z" horiz-adv-x="532" 
d="M565 712l-12 -60l-452 -588h341l-13 -64h-423l14 67l447 581h-324l12 64h410z" />
    <glyph glyph-name="bracketleft" unicode="[" horiz-adv-x="300" 
d="M362 786l-13 -62h-96l-147 -736h104l-12 -62h-174l171 860h167z" />
    <glyph glyph-name="backslash" unicode="\" horiz-adv-x="335" 
d="M272 -74h-66l-99 856h66z" />
    <glyph glyph-name="bracketright" unicode="]" horiz-adv-x="300" 
d="M320 786l-171 -860h-167l12 59h99l148 742h-108l12 59h175z" />
    <glyph glyph-name="asciicircum" unicode="^" horiz-adv-x="514" 
d="M481 413h-68l-72 232l-165 -232h-75l217 305h67z" />
    <glyph glyph-name="underscore" unicode="_" 
d="M425 -113l-10 -49h-497l11 49h496z" />
    <glyph glyph-name="quoteleft" unicode="&#x2018;" horiz-adv-x="250" 
d="M277 792l-33 -165h-84l17 85z" />
    <glyph glyph-name="a" unicode="a" horiz-adv-x="501" 
d="M443 371c0 -10 -3 -27 -5 -39l-66 -332h-69l11 49c-37 -37 -79 -55 -141 -55c-78 0 -148 32 -148 120c0 41 12 84 44 115c40 39 89 52 145 52h144l11 52c2 9 4 21 4 33c0 48 -38 73 -99 73s-97 -19 -133 -59l-41 48c44 48 95 71 178 71c70 0 165 -22 165 -128zM348 229
h-127c-75 0 -127 -39 -127 -111c0 -42 29 -65 98 -65c43 0 79 13 105 39c20 19 34 47 40 80z" />
    <glyph glyph-name="b" unicode="b" horiz-adv-x="519" 
d="M470 343c0 -19 -3 -55 -11 -96c-17 -87 -39 -156 -85 -202c-37 -37 -84 -51 -131 -51c-49 0 -99 16 -124 69l-13 -63h-69l142 712h70l-55 -275c22 28 60 62 135 62c91 0 141 -54 141 -156zM399 334c0 56 -19 103 -88 103c-100 0 -136 -88 -155 -190
c-6 -30 -11 -63 -11 -88c0 -56 20 -103 89 -103c100 0 135 89 154 191c6 30 11 62 11 87z" />
    <glyph glyph-name="c" unicode="c" horiz-adv-x="466" 
d="M450 426l-52 -44c-26 39 -53 55 -97 55c-38 0 -76 -14 -109 -48c-36 -38 -55 -93 -64 -142c-5 -26 -8 -48 -8 -74c0 -83 52 -117 107 -117c47 0 81 17 119 57l41 -50c-47 -47 -104 -69 -164 -69c-116 0 -173 78 -173 177c0 20 2 50 7 76c30 164 124 252 251 252
c69 0 110 -28 142 -73z" />
    <glyph glyph-name="d" unicode="d" horiz-adv-x="519" 
d="M527 712l-142 -712h-69l12 59c-45 -54 -91 -65 -137 -65c-106 0 -141 70 -141 155c0 30 4 64 11 98c17 86 40 155 85 200c39 39 82 52 132 52c45 0 95 -14 122 -68l57 281h70zM375 336c0 54 -20 101 -89 101c-100 0 -135 -88 -154 -190c-6 -30 -11 -63 -11 -89
c0 -54 19 -102 88 -102c100 0 136 89 155 191c6 30 11 63 11 89z" />
    <glyph glyph-name="e" unicode="e" horiz-adv-x="506" 
d="M453 330c0 -25 -4 -63 -12 -101h-317c-4 -21 -6 -40 -6 -62c0 -65 32 -112 106 -112c58 0 96 20 138 58l42 -47c-52 -49 -111 -72 -186 -72c-97 0 -168 56 -168 170c0 148 68 335 243 335c105 0 160 -75 160 -169zM385 330c0 76 -44 110 -95 110
c-72 0 -128 -50 -157 -160h248c2 16 4 30 4 50z" />
    <glyph glyph-name="f" unicode="f" horiz-adv-x="299" 
d="M364 714l-12 -60h-36c-39 0 -68 -20 -78 -70l-19 -95h102l-11 -53h-102l-87 -436h-70l87 436h-59l10 53h59l20 99c20 100 85 126 143 126h53z" />
    <glyph glyph-name="g" unicode="g" horiz-adv-x="517" 
d="M481 493l-101 -504c-35 -177 -147 -214 -230 -214c-67 0 -114 22 -151 66l50 44c22 -27 50 -50 101 -50c70 0 137 42 161 154l16 76c-31 -39 -71 -63 -136 -63c-88 0 -141 55 -141 152c0 24 3 55 11 97c16 86 39 153 83 197c38 38 86 51 132 51c47 0 98 -14 124 -69
l12 63h69zM374 337c0 67 -31 100 -89 100c-97 0 -134 -88 -153 -187c-6 -31 -11 -61 -11 -86c0 -56 20 -100 89 -100c95 0 134 89 153 187c6 31 11 61 11 86z" />
    <glyph glyph-name="h" unicode="h" horiz-adv-x="535" 
d="M474 360c0 -19 -2 -33 -5 -49l-63 -311h-70l61 304c3 16 5 33 5 46c0 59 -38 87 -89 87c-34 0 -122 -16 -146 -135l-60 -302h-70l142 712h70l-54 -271c33 36 78 58 143 58c75 0 136 -49 136 -139z" />
    <glyph glyph-name="i" unicode="i" horiz-adv-x="241" 
d="M205 493l-98 -493h-70l98 493h70zM251 706l-15 -73h-79l14 73h80z" />
    <glyph glyph-name="j" unicode="j" horiz-adv-x="241" 
d="M205 493l-116 -585c-17 -85 -67 -128 -145 -128h-51l12 60h34c46 0 70 23 80 75l116 578h70zM251 706l-15 -73h-79l14 73h80z" />
    <glyph glyph-name="k" unicode="k" horiz-adv-x="513" 
d="M501 492l-196 -191l133 -301h-81l-106 256l-115 -109l-29 -147h-70l142 712h70l-94 -471l256 251h90z" />
    <glyph glyph-name="l" unicode="l" horiz-adv-x="285" 
d="M247 712l-116 -578c-3 -14 -4 -21 -4 -33c0 -25 12 -41 54 -41h41l-12 -60h-52c-44 0 -101 21 -101 94c0 14 1 27 4 40l116 578h70z" />
    <glyph glyph-name="m" unicode="m" horiz-adv-x="834" 
d="M773 360c0 -20 -2 -34 -5 -49l-62 -311h-71l61 304c3 16 6 33 6 46c0 59 -39 87 -90 87c-34 0 -121 -16 -145 -135l-61 -302h-70l61 304c3 16 5 33 5 46c0 59 -38 87 -89 87c-34 0 -122 -16 -146 -135l-60 -302h-70l98 493h69l-11 -55c33 38 81 61 146 61
c55 0 99 -28 123 -82c41 51 90 82 173 82c77 0 138 -51 138 -139z" />
    <glyph glyph-name="n" unicode="n" horiz-adv-x="535" 
d="M474 360c0 -19 -2 -33 -5 -49l-63 -311h-70l61 304c3 16 5 33 5 46c0 59 -38 87 -89 87c-34 0 -122 -16 -146 -135l-60 -302h-70l98 493h69l-11 -55c33 38 81 61 146 61c75 0 135 -49 135 -139z" />
    <glyph glyph-name="o" unicode="o" horiz-adv-x="502" 
d="M452 336c0 -30 -5 -66 -9 -89c-21 -108 -53 -163 -93 -199c-41 -37 -91 -54 -141 -54c-56 0 -159 28 -159 164c0 30 5 66 9 89c21 108 53 163 93 199c41 37 91 53 141 53c56 0 159 -27 159 -163zM383 333c0 76 -47 104 -95 104c-34 0 -69 -15 -92 -38
c-30 -30 -50 -71 -66 -152c-7 -36 -11 -67 -11 -87c0 -76 47 -104 95 -104c34 0 69 16 92 39c30 30 50 71 66 152c7 36 11 66 11 86z" />
    <glyph glyph-name="p" unicode="p" horiz-adv-x="519" 
d="M470 345c0 -28 -3 -57 -11 -98c-17 -86 -40 -156 -85 -201c-39 -39 -82 -52 -132 -52c-45 0 -95 14 -122 68l-57 -281h-70l142 712h69l-12 -58c45 54 91 64 137 64c106 0 141 -70 141 -154zM399 336c0 54 -19 101 -88 101c-100 0 -136 -88 -155 -190
c-6 -30 -11 -63 -11 -89c0 -54 20 -102 89 -102c100 0 135 89 154 191c6 30 11 63 11 89z" />
    <glyph glyph-name="q" unicode="q" horiz-adv-x="519" 
d="M483 493l-142 -712h-71l55 276c-22 -28 -60 -63 -135 -63c-91 0 -141 54 -141 156c0 19 3 56 11 97c17 87 39 156 85 202c37 37 85 50 132 50c49 0 98 -16 123 -69l13 63h70zM374 334c0 56 -20 103 -89 103c-100 0 -135 -88 -154 -190c-6 -30 -11 -63 -11 -88
c0 -56 19 -103 88 -103c100 0 136 89 155 191c6 30 11 62 11 87z" />
    <glyph glyph-name="r" unicode="r" horiz-adv-x="399" 
d="M437 453l-57 -51c-13 17 -34 35 -70 35c-70 0 -128 -59 -143 -135l-60 -302h-70l98 493h69l-12 -60c30 41 79 66 138 66c47 0 81 -16 107 -46z" />
    <glyph glyph-name="s" unicode="s" horiz-adv-x="471" 
d="M434 444l-50 -43c-32 28 -64 40 -115 40c-83 0 -123 -52 -123 -100c0 -33 25 -49 73 -56l66 -9c87 -13 120 -48 120 -121c0 -35 -13 -73 -49 -107c-38 -37 -103 -54 -169 -54c-82 0 -139 24 -182 71l52 45c32 -37 71 -56 136 -56c97 0 142 54 142 99c0 44 -27 56 -69 62
l-67 10c-103 15 -123 66 -123 107c0 37 15 81 46 112c35 35 86 55 156 55c66 0 116 -18 156 -55z" />
    <glyph glyph-name="t" unicode="t" horiz-adv-x="319" 
d="M314 489l-11 -53h-96l-61 -302c-3 -14 -4 -21 -4 -32c0 -26 13 -42 55 -42h40l-13 -60h-50c-44 0 -102 21 -102 94c0 15 2 28 4 40l60 302h-61l10 53h62l31 154h70l-31 -154h97z" />
    <glyph glyph-name="u" unicode="u" horiz-adv-x="535" 
d="M498 493l-98 -493h-69l10 55c-33 -38 -80 -61 -145 -61c-75 0 -136 49 -136 139c0 19 3 33 6 49l62 311h70l-61 -304c-3 -16 -5 -33 -5 -46c0 -59 39 -87 90 -87c34 0 121 16 145 135l60 302h71z" />
    <glyph glyph-name="v" unicode="v" horiz-adv-x="425" 
d="M464 493l-268 -493h-63l-73 493h71l50 -397l205 397h78z" />
    <glyph glyph-name="w" unicode="w" horiz-adv-x="688" 
d="M724 493l-239 -493h-64l-48 382l-197 -382h-64l-51 493h71l31 -394l200 394h57l47 -394l183 394h74z" />
    <glyph glyph-name="x" unicode="x" horiz-adv-x="458" 
d="M467 493l-197 -244l114 -249h-82l-81 196l-152 -196h-86l206 256l-108 237h81l78 -185l141 185h86z" />
    <glyph glyph-name="y" unicode="y" horiz-adv-x="424" 
d="M462 493l-328 -611c-17 -31 -29 -47 -42 -59c-25 -23 -55 -33 -102 -33h-31l13 62h21c47 0 63 16 89 65l49 94l-71 482h70l51 -397l204 397h77z" />
    <glyph glyph-name="z" unicode="z" horiz-adv-x="440" 
d="M439 493l-12 -59l-330 -372h262l-12 -62h-347l12 59l329 372h-247l12 62h333z" />
    <glyph glyph-name="braceleft" unicode="{" horiz-adv-x="338" 
d="M397 786l-13 -62h-25c-57 0 -66 -19 -77 -74l-39 -194c-12 -62 -38 -88 -81 -101c34 -19 43 -45 43 -71c0 -7 -1 -23 -3 -33l-37 -185c-3 -15 -5 -26 -5 -39c0 -31 15 -39 53 -39h33l-12 -62h-40c-87 0 -106 47 -106 90c0 14 4 32 6 44l38 188c3 13 2 23 1 35
c-2 20 -12 44 -51 44h-20l13 62h24c18 0 35 7 48 19c14 12 22 32 28 60l38 189c10 51 18 79 46 103c20 17 50 26 95 26h43z" />
    <glyph glyph-name="bar" unicode="|" horiz-adv-x="310" 
d="M298 786l-172 -860h-69l171 860h70z" />
    <glyph glyph-name="braceright" unicode="}" horiz-adv-x="338" 
d="M321 385l-13 -62h-24c-18 0 -36 -7 -49 -19c-14 -12 -22 -32 -28 -60l-37 -189c-10 -51 -18 -79 -46 -103c-20 -17 -50 -26 -95 -26h-43l12 62h26c57 0 66 19 77 74l39 194c12 62 38 88 81 101c-34 19 -43 45 -43 71c0 7 1 23 3 33l37 185c3 15 5 26 5 39
c0 31 -15 39 -53 39h-33l12 62h40c87 0 105 -47 105 -90c0 -14 -3 -32 -5 -44l-38 -188c-3 -13 -2 -23 -1 -35c2 -20 11 -44 50 -44h21z" />
    <glyph glyph-name="asciitilde" unicode="~" horiz-adv-x="513" 
d="M476 275c-64 -57 -100 -64 -131 -64c-35 0 -56 8 -101 32c-32 17 -49 22 -70 22c-25 0 -45 -7 -90 -44l-37 47c64 57 101 65 132 65c35 0 55 -8 100 -32c32 -17 49 -23 70 -23c25 0 46 7 91 44z" />
    <glyph glyph-name="exclamdown" unicode="&#xa1;" horiz-adv-x="301" 
d="M176 296l-91 -515h-82l113 515h60zM224 493l-17 -86h-83l17 86h83z" />
    <glyph glyph-name="cent" unicode="&#xa2;" horiz-adv-x="476" 
d="M481 541l-52 -42c-23 34 -48 53 -86 56l-71 -378c41 3 72 20 106 56l41 -48c-46 -47 -98 -67 -156 -71l-22 -114h-57l23 117c-88 16 -133 90 -133 178c0 140 72 304 228 321l18 96h57l-19 -95c57 -6 95 -35 123 -76zM293 552c-33 -7 -61 -39 -87 -76
c-38 -52 -60 -128 -59 -193c1 -64 36 -95 76 -103z" />
    <glyph glyph-name="sterling" unicode="&#xa3;" horiz-adv-x="522" 
d="M549 653l-53 -46c-26 35 -59 47 -100 47c-94 0 -150 -62 -170 -164l-21 -107h141l-11 -51h-140l-53 -268h298l-13 -64h-371l67 332h-60l9 51h61l23 115c28 137 106 220 249 220c66 0 111 -25 144 -65z" />
    <glyph glyph-name="fraction" unicode="&#x2044;" horiz-adv-x="179" 
d="M371 712l-459 -712h-60l459 712h60z" />
    <glyph glyph-name="yen" unicode="&#xa5;" horiz-adv-x="490" 
d="M575 712l-211 -315h95l-10 -50h-119l-37 -55l-10 -50h146l-10 -51h-146l-38 -191h-73l38 191h-145l10 51h145l11 54l-15 51h-121l10 50h96l-91 315h76l94 -344l224 344h81z" />
    <glyph glyph-name="florin" unicode="&#x192;" horiz-adv-x="383" 
d="M448 714l-12 -60h-43c-47 0 -76 -24 -93 -72l-72 -197h102l-12 -53h-109l-202 -551h-71l203 551h-92l10 53h101l72 197c29 78 69 132 171 132h47z" />
    <glyph glyph-name="section" unicode="&#xa7;" horiz-adv-x="528" 
d="M497 584c0 -8 0 -14 -1 -19h-68c6 59 -34 91 -86 91c-72 0 -123 -47 -123 -116c0 -45 26 -68 65 -81l67 -22c44 -15 98 -55 98 -141c0 -87 -40 -170 -135 -212c39 -19 68 -58 68 -116c0 -113 -80 -193 -206 -193c-88 0 -152 50 -152 137c0 5 0 14 1 21h69
c-6 -59 27 -95 91 -95c67 0 126 43 126 124c0 40 -23 71 -66 86l-67 22c-44 15 -98 55 -98 141c0 87 41 172 135 212c-42 24 -65 65 -65 115c0 112 92 180 195 180c106 0 152 -71 152 -134zM380 291c0 64 -44 92 -90 92c-34 0 -62 -11 -87 -34c-27 -25 -42 -55 -50 -96
c-3 -14 -4 -23 -4 -37c0 -70 52 -93 90 -93c34 0 62 12 87 35c27 25 42 54 50 95c3 14 4 24 4 38z" />
    <glyph glyph-name="currency" unicode="&#xa4;" horiz-adv-x="643" 
d="M625 509h-73c0 88 -49 146 -131 146c-51 0 -97 -18 -139 -60c-29 -29 -47 -67 -64 -140h209l-9 -47h-210l-19 -98h210l-9 -47h-208c-5 -29 -7 -54 -7 -75c0 -83 62 -131 134 -131c79 0 156 55 190 146h74c-33 -104 -119 -209 -270 -209c-109 0 -201 69 -201 192
c0 20 2 42 8 77h-64l8 47h64l18 98h-63l9 47h64c19 84 39 138 86 185s117 78 189 78c136 0 203 -88 204 -209z" />
    <glyph glyph-name="quotesingle" unicode="'" horiz-adv-x="242" 
d="M252 712l-34 -172h-76l35 172h75z" />
    <glyph glyph-name="quotedblleft" unicode="&#x201c;" horiz-adv-x="413" 
d="M277 792l-33 -165h-84l17 85zM440 792l-34 -165h-83l17 85z" />
    <glyph glyph-name="guillemotleft" unicode="&#xab;" horiz-adv-x="528" 
d="M285 478l-19 -95l-138 -121l91 -121l-16 -84l-161 211zM501 478l-19 -95l-139 -121l93 -121l-17 -84l-161 211z" />
    <glyph glyph-name="guilsinglleft" unicode="&#x2039;" horiz-adv-x="312" 
d="M285 478l-19 -95l-138 -121l91 -121l-16 -84l-161 211z" />
    <glyph glyph-name="guilsinglright" unicode="&#x203a;" horiz-adv-x="312" 
d="M279 267l-242 -210l19 95l138 121l-92 121l17 84z" />
    <glyph glyph-name="fi" unicode="&#xfb01;" horiz-adv-x="537" 
d="M364 714l-12 -60h-36c-39 0 -68 -20 -78 -70l-19 -95h102l-11 -53h-102l-87 -436h-70l87 436h-59l10 53h59l20 99c20 100 85 126 143 126h53zM499 489l-98 -489h-70l98 489h70zM546 712l-14 -72h-79l15 72h78z" />
    <glyph glyph-name="fl" unicode="&#xfb02;" horiz-adv-x="579" 
d="M364 714l-12 -60h-36c-39 0 -68 -20 -78 -70l-19 -95h102l-11 -53h-102l-87 -436h-70l87 436h-59l10 53h59l20 99c20 100 85 126 143 126h53zM541 712l-116 -578c-3 -14 -5 -21 -5 -33c0 -25 13 -41 55 -41h41l-13 -60h-51c-44 0 -102 21 -102 94c0 14 1 27 4 40l116 578
h71z" />
    <glyph glyph-name="endash" unicode="&#x2013;" 
d="M458 302l-13 -64h-396l12 64h397z" />
    <glyph glyph-name="dagger" unicode="&#x2020;" horiz-adv-x="574" 
d="M556 507l-12 -62h-183l-89 -445h-70l89 445h-182l13 62h181l41 205h70l-41 -205h183z" />
    <glyph glyph-name="daggerdbl" unicode="&#x2021;" horiz-adv-x="574" 
d="M556 507l-12 -62h-183l-80 -395h185l-12 -62h-185l-41 -207h-70l42 207h-180l12 62h180l79 395h-182l13 62h181l41 205h70l-41 -205h183z" />
    <glyph glyph-name="periodcentered" unicode="&#xb7;" horiz-adv-x="257" 
d="M187 315l-18 -90h-90l18 90h90z" />
    <glyph glyph-name="paragraph" unicode="&#xb6;" horiz-adv-x="574" 
d="M571 712l-186 -931h-70l172 866h-110l-173 -866h-70l112 561c-90 4 -152 78 -152 166c0 101 75 204 238 204h239z" />
    <glyph glyph-name="bullet" unicode="&#x2022;" horiz-adv-x="505" 
d="M425 334c0 -90 -65 -155 -155 -155s-155 65 -155 155s65 155 155 155s155 -65 155 -155z" />
    <glyph glyph-name="quotesinglbase" unicode="&#x201a;" horiz-adv-x="250" 
d="M136 85l-17 -85l-101 -80l33 165h85z" />
    <glyph glyph-name="quotedblbase" unicode="&#x201e;" horiz-adv-x="413" 
d="M136 85l-17 -85l-101 -80l33 165h85zM299 85l-18 -85l-100 -80l33 165h85z" />
    <glyph glyph-name="quotedblright" unicode="&#x201d;" horiz-adv-x="413" 
d="M261 712l-17 -85l-100 -80l33 165h84zM424 712l-18 -85l-99 -80l33 165h84z" />
    <glyph glyph-name="guillemotright" unicode="&#xbb;" horiz-adv-x="528" 
d="M496 267l-243 -210l19 95l138 121l-91 121l16 84zM280 267l-243 -210l19 95l139 121l-93 121l17 84z" />
    <glyph glyph-name="ellipsis" unicode="&#x2026;" horiz-adv-x="721" 
d="M607 92l-17 -92h-90l19 92h88zM141 92l-18 -92h-89l19 92h88zM374 92l-18 -92h-88l18 92h88z" />
    <glyph glyph-name="perthousand" unicode="&#x2030;" horiz-adv-x="1129" 
d="M1066 263c0 -14 -1 -25 -3 -35l-18 -99c-16 -84 -65 -135 -152 -135c-49 0 -108 26 -108 105c0 14 1 25 3 35l19 99c16 84 64 135 151 135c49 0 108 -26 108 -105zM388 614c0 -14 -1 -25 -3 -35l-19 -99c-16 -84 -64 -135 -151 -135c-49 0 -108 26 -108 105
c0 14 1 25 3 35l18 99c16 84 65 135 152 135c49 0 108 -26 108 -105zM737 263c0 -14 -1 -25 -3 -35l-18 -99c-16 -84 -65 -135 -152 -135c-49 0 -108 26 -108 105c0 14 1 25 3 35l19 99c16 84 64 135 151 135c49 0 108 -26 108 -105zM682 712l-459 -712h-60l458 712h61z
M334 610c0 35 -15 60 -61 60c-54 0 -81 -37 -90 -86l-19 -103c-2 -9 -3 -16 -3 -27c0 -35 15 -60 61 -60c54 0 80 37 89 86l20 103c2 9 3 16 3 27zM1012 259c0 35 -15 60 -61 60c-54 0 -80 -37 -89 -86l-20 -103c-2 -9 -2 -16 -2 -27c0 -35 14 -60 60 -60c54 0 81 37 90 86
l19 103c2 9 3 16 3 27zM683 259c0 35 -15 60 -61 60c-54 0 -80 -37 -89 -86l-20 -103c-2 -9 -2 -16 -2 -27c0 -35 14 -60 60 -60c54 0 81 37 90 86l19 103c2 9 3 16 3 27z" />
    <glyph glyph-name="questiondown" unicode="&#xbf;" horiz-adv-x="474" 
d="M347 -47c-21 -112 -101 -178 -214 -178c-79 0 -149 54 -149 147c0 63 28 110 70 158l101 117c15 17 27 42 30 58l8 42h70l-9 -45c-8 -38 -19 -62 -48 -95l-100 -115c-33 -38 -51 -69 -51 -116c0 -48 30 -88 89 -88c66 0 117 43 132 115h71zM302 493l-16 -86h-83l16 86h83
z" />
    <glyph glyph-name="grave" unicode="`" horiz-adv-x="475" 
d="M350 589h-60l-72 151h80z" />
    <glyph glyph-name="acute" unicode="&#xb4;" horiz-adv-x="475" 
d="M455 740l-130 -151h-66l112 151h84z" />
    <glyph glyph-name="circumflex" unicode="&#x2c6;" horiz-adv-x="475" 
d="M460 594h-63l-64 106l-109 -106h-69l150 153h65z" />
    <glyph glyph-name="tilde" unicode="&#x2dc;" horiz-adv-x="475" 
d="M472 654c-35 -33 -64 -47 -97 -47c-29 0 -51 11 -69 24c-22 15 -30 19 -51 19c-20 0 -37 -11 -62 -34l-30 39c35 33 63 47 96 47c29 0 52 -11 70 -24c22 -15 30 -19 51 -19c20 0 37 11 62 34z" />
    <glyph glyph-name="macron" unicode="&#xaf;" horiz-adv-x="475" 
d="M466 666l-12 -54h-286l10 54h288z" />
    <glyph glyph-name="breve" unicode="&#x2d8;" horiz-adv-x="475" 
d="M491 728c-19 -98 -82 -140 -178 -140c-87 0 -137 52 -137 116c0 12 1 18 2 24h55c-3 -52 29 -85 88 -85c55 0 99 26 115 85h55z" />
    <glyph glyph-name="dotaccent" unicode="&#x2d9;" horiz-adv-x="475" 
d="M368 701l-14 -72h-78l14 72h78z" />
    <glyph glyph-name="dieresis" unicode="&#xa8;" horiz-adv-x="475" 
d="M461 685l-17 -88h-71l18 88h70zM260 685l-18 -88h-69l17 88h70z" />
    <glyph glyph-name="ring" unicode="&#x2da;" horiz-adv-x="475" 
d="M443 687c0 -66 -53 -119 -118 -119s-117 53 -117 119s52 117 117 117s118 -51 118 -117zM396 687c0 38 -34 69 -71 69s-70 -31 -70 -69s33 -71 70 -71s71 33 71 71z" />
    <glyph glyph-name="cedilla" unicode="&#xb8;" horiz-adv-x="475" 
d="M236 -66l-83 -146h-77l96 146h64z" />
    <glyph glyph-name="hungarumlaut" unicode="&#x2dd;" horiz-adv-x="475" 
d="M526 740l-131 -151h-65l112 151h84zM370 740l-131 -151h-65l112 151h84z" />
    <glyph glyph-name="ogonek" unicode="&#x2db;" horiz-adv-x="475" 
d="M215 -208h-75l-24 147h62z" />
    <glyph glyph-name="caron" unicode="&#x2c7;" horiz-adv-x="475" 
d="M491 747l-150 -153h-66l-90 153h63l65 -106l108 106h70z" />
    <glyph glyph-name="emdash" unicode="&#x2014;" horiz-adv-x="871" 
d="M812 304l-13 -66h-729l13 66h729z" />
    <glyph glyph-name="AE" unicode="&#xc6;" horiz-adv-x="881" 
d="M920 712l-13 -63h-346l-52 -260h296l-13 -64h-296l-52 -262h351l-13 -63h-423l34 173h-232l-120 -173h-82l499 712h462zM489 649l-287 -415h204z" />
    <glyph glyph-name="ordfeminine" unicode="&#xaa;" horiz-adv-x="427" 
d="M419 613c0 -8 -1 -21 -3 -31l-53 -264h-55l7 38c-26 -30 -61 -43 -111 -43c-62 0 -118 26 -118 97c0 32 10 66 36 91c31 31 69 41 114 41h114l8 41c3 15 4 20 4 27c0 36 -28 55 -77 55c-51 0 -78 -13 -106 -44l-34 40c38 38 77 55 143 55c55 0 131 -18 131 -103zM342 499
h-100c-59 0 -99 -34 -99 -87c0 -33 25 -50 77 -50c34 0 62 10 83 31c14 14 25 35 30 61z" />
    <glyph glyph-name="Lslash" unicode="&#x141;" horiz-adv-x="555" 
d="M491 63l-12 -63h-421l58 291l-78 -46l13 66l79 46l71 355h72l-61 -310l166 98l-13 -66l-167 -98l-55 -273h348z" />
    <glyph glyph-name="Oslash" unicode="&#xd8;" horiz-adv-x="618" 
d="M619 756l-70 -107c26 -32 41 -75 41 -123c0 -31 -6 -72 -24 -170c-30 -160 -48 -225 -106 -283c-49 -49 -120 -79 -193 -79c-44 0 -85 11 -117 33l-46 -71h-63l69 107c-25 31 -42 75 -42 123c0 31 7 72 25 170c30 160 48 225 106 283c49 49 120 79 193 79
c45 0 85 -11 117 -33l46 71h64zM142 190c0 -23 4 -43 12 -60l318 495c-23 20 -53 30 -82 30c-55 0 -103 -22 -141 -61c-37 -37 -55 -88 -83 -238c-18 -95 -24 -134 -24 -166zM516 522c0 22 -4 42 -12 59l-319 -495c23 -20 53 -29 83 -29c55 0 103 22 141 61
c37 37 55 88 83 238c18 95 24 134 24 166z" />
    <glyph glyph-name="OE" unicode="&#x152;" horiz-adv-x="936" 
d="M975 712l-13 -64h-340l-52 -257h293l-13 -63h-292l-54 -264h349l-13 -64h-416l13 66c-38 -43 -99 -72 -172 -72c-110 0 -196 74 -196 192c0 31 6 72 24 170c30 160 48 225 106 283c50 50 120 79 192 79c76 0 131 -34 158 -87l16 81h410zM517 522c0 88 -64 133 -127 133
c-55 0 -103 -22 -141 -61c-37 -37 -54 -88 -83 -238c-19 -98 -24 -135 -24 -166c0 -88 63 -133 126 -133c55 0 103 22 141 61c37 37 54 88 83 238c19 98 25 135 25 166z" />
    <glyph glyph-name="ordmasculine" unicode="&#xba;" horiz-adv-x="432" 
d="M425 586c0 -24 -4 -53 -7 -71c-14 -71 -36 -125 -74 -159c-33 -29 -72 -42 -112 -42c-45 0 -127 22 -127 130c0 24 4 53 7 71c14 71 36 124 74 158c33 29 73 43 113 43c45 0 126 -22 126 -130zM369 582c0 63 -39 82 -75 82c-35 0 -59 -16 -72 -29
c-27 -27 -43 -70 -53 -120c-4 -22 -8 -46 -8 -68c0 -63 39 -82 75 -82c35 0 60 17 73 30c27 27 42 70 52 120c4 22 8 45 8 67z" />
    <glyph glyph-name="ae" unicode="&#xe6;" horiz-adv-x="799" 
d="M746 331c0 -25 -4 -64 -12 -102h-317c-4 -21 -6 -40 -6 -62c0 -65 32 -112 106 -112c58 0 96 20 138 58l42 -47c-52 -49 -110 -72 -185 -72c-68 0 -124 31 -150 86c-38 -57 -92 -86 -179 -86s-158 29 -158 120c0 41 13 84 44 115c39 40 89 52 145 52h144l11 51
c2 9 4 22 4 34c0 48 -38 73 -99 73s-97 -19 -133 -59l-41 48c44 48 95 71 178 71c54 0 121 -14 149 -77c37 47 90 77 159 77c105 0 160 -73 160 -168zM348 229h-127c-75 0 -127 -39 -127 -111c0 -42 29 -65 98 -65c43 0 79 13 105 39c20 19 34 46 40 79zM678 331
c0 76 -43 109 -94 109c-72 0 -129 -49 -158 -159h248c2 16 4 29 4 50z" />
    <glyph glyph-name="dotlessi" unicode="&#x131;" horiz-adv-x="241" 
d="M205 493l-98 -493h-70l98 493h70z" />
    <glyph glyph-name="lslash" unicode="&#x142;" horiz-adv-x="303" 
d="M291 496l-13 -63l-86 -50l-49 -249c-3 -14 -5 -21 -5 -33c0 -25 13 -41 55 -41h41l-13 -60h-51c-44 0 -102 21 -102 94c0 14 1 27 4 40l42 208l-67 -39l12 64l68 38l61 307h70l-53 -265z" />
    <glyph glyph-name="oslash" unicode="&#xf8;" horiz-adv-x="503" 
d="M497 537l-73 -97c18 -24 29 -58 29 -104c0 -30 -5 -66 -9 -89c-20 -108 -53 -163 -93 -199c-41 -37 -91 -54 -141 -54c-27 0 -67 6 -99 30l-51 -68h-55l74 99c-17 24 -29 58 -29 103c0 30 6 66 10 89c20 108 53 163 93 199c41 37 91 53 141 53c26 0 65 -6 97 -29l50 67
h56zM384 333c0 18 -3 34 -8 47l-226 -302c17 -16 40 -22 64 -22c34 0 70 16 93 39c30 30 50 71 66 152c7 36 11 66 11 86zM120 160c0 -17 2 -32 6 -45l226 301c-18 15 -40 21 -63 21c-34 0 -69 -15 -92 -38c-30 -30 -51 -71 -67 -152c-7 -36 -10 -67 -10 -87z" />
    <glyph glyph-name="oe" unicode="&#x153;" horiz-adv-x="821" 
d="M768 330c0 -25 -4 -63 -12 -101h-318c-4 -21 -6 -40 -6 -62c0 -65 33 -112 107 -112c58 0 96 20 138 58l42 -47c-52 -49 -111 -72 -186 -72c-62 0 -123 22 -150 98c-41 -67 -105 -98 -174 -98c-56 0 -159 28 -159 164c0 30 5 66 9 89c20 108 53 163 93 199
c41 37 91 53 141 53c63 0 120 -29 142 -97c46 74 112 97 173 97c105 0 160 -74 160 -169zM383 333c0 76 -47 104 -95 104c-34 0 -69 -15 -92 -38c-30 -30 -50 -71 -66 -152c-7 -36 -11 -67 -11 -87c0 -76 47 -104 95 -104c34 0 69 16 92 39c30 30 50 71 66 152
c7 36 11 66 11 86zM700 330c0 76 -44 110 -95 110c-72 0 -128 -50 -157 -160h247c2 16 5 30 5 50z" />
    <glyph glyph-name="germandbls" unicode="&#xdf;" horiz-adv-x="531" 
d="M525 574c0 -57 -30 -114 -87 -145c31 -17 44 -44 44 -77c0 -11 -2 -24 -5 -38l-33 -172c-18 -91 -76 -142 -161 -142h-57l11 60h41c25 0 41 7 60 21c17 13 31 38 37 68l34 170c2 10 3 19 3 25c0 41 -29 58 -63 58h-44l12 58h35c67 0 103 58 103 112c0 23 -5 44 -20 59
c-18 18 -41 27 -76 27c-89 0 -131 -56 -147 -136l-105 -522h-70l105 525c26 129 101 194 224 194c92 0 159 -51 159 -145z" />
    <glyph glyph-name="eth" unicode="&#xf0;" horiz-adv-x="504" 
d="M451 331c0 -28 -5 -60 -10 -86c-19 -96 -48 -160 -93 -199c-41 -36 -90 -52 -139 -52c-58 0 -158 28 -158 163c0 26 5 63 10 88c21 107 51 161 92 197c38 34 81 49 123 51c35 2 57 -3 76 -13l-38 101h-112l10 51h87l-30 82h70l29 -82h78l-9 -51h-54l40 -111
c22 -64 28 -103 28 -139zM381 332c0 77 -48 102 -93 102c-34 0 -68 -15 -91 -38c-30 -29 -50 -72 -66 -151c-6 -32 -10 -64 -10 -87c0 -77 48 -103 93 -103c34 0 68 16 91 39c30 29 50 72 66 151c6 32 10 64 10 87z" />
    <glyph glyph-name="Scaron" unicode="&#x160;" horiz-adv-x="559" 
d="M552 636l-52 -44c-34 39 -71 64 -143 64c-110 0 -176 -79 -176 -160c0 -56 43 -84 102 -98l67 -15c107 -25 154 -74 154 -173c0 -140 -122 -216 -268 -216c-100 0 -162 29 -220 98l55 48c43 -54 94 -82 172 -82c104 0 188 61 188 149c0 74 -44 97 -101 110l-67 16
c-69 16 -154 56 -154 160c0 100 74 225 255 225c73 0 138 -23 188 -82zM542 934l-150 -153h-66l-90 153h63l65 -106l108 106h70z" />
    <glyph glyph-name="scaron" unicode="&#x161;" horiz-adv-x="471" 
d="M434 444l-50 -43c-32 28 -64 40 -115 40c-83 0 -123 -52 -123 -100c0 -33 25 -49 73 -56l66 -9c87 -13 120 -48 120 -121c0 -35 -13 -73 -49 -107c-38 -37 -103 -54 -169 -54c-82 0 -139 24 -182 71l52 45c32 -37 71 -56 136 -56c97 0 142 54 142 99c0 44 -27 56 -69 62
l-67 10c-103 15 -123 66 -123 107c0 37 15 81 46 112c35 35 86 55 156 55c66 0 116 -18 156 -55zM476 747l-150 -153h-66l-90 153h63l65 -106l108 106h70z" />
    <glyph glyph-name="Yacute" unicode="&#xdd;" horiz-adv-x="490" 
d="M575 712l-282 -421l-59 -291h-73l60 296l-121 416h76l94 -344l224 344h81zM473 927l-130 -151h-66l112 151h84z" />
    <glyph glyph-name="yacute" unicode="&#xfd;" horiz-adv-x="424" 
d="M462 493l-328 -611c-17 -31 -29 -47 -42 -59c-25 -23 -55 -33 -102 -33h-31l13 62h21c47 0 63 16 89 65l49 94l-71 482h70l51 -397l204 397h77zM419 740l-130 -151h-66l112 151h84z" />
    <glyph glyph-name="Thorn" unicode="&#xde;" horiz-adv-x="611" 
d="M586 396c0 -135 -93 -243 -252 -243h-181l-32 -153h-72l143 712h72l-29 -144h169c132 0 182 -85 182 -172zM513 392c0 58 -31 112 -118 112h-172l-58 -287h172c104 0 176 73 176 175z" />
    <glyph glyph-name="thorn" unicode="&#xfe;" horiz-adv-x="519" 
d="M470 345c0 -19 -2 -52 -11 -98c-18 -90 -41 -158 -85 -202c-39 -39 -85 -51 -131 -51c-48 0 -98 16 -123 68l-57 -281h-70l186 931h70l-55 -275c21 26 58 62 136 62c99 0 140 -64 140 -154zM399 334c0 56 -19 103 -88 103c-100 0 -136 -88 -155 -190
c-6 -30 -11 -63 -11 -88c0 -56 20 -103 89 -103c100 0 135 89 154 191c6 30 11 62 11 87z" />
    <glyph glyph-name="Zcaron" unicode="&#x17d;" horiz-adv-x="532" 
d="M565 712l-12 -60l-452 -588h341l-13 -64h-423l14 67l447 581h-324l12 64h410zM540 934l-150 -153h-66l-90 153h63l65 -106l108 106h70z" />
    <glyph glyph-name="zcaron" unicode="&#x17e;" horiz-adv-x="440" 
d="M439 493l-12 -59l-330 -372h262l-12 -62h-347l12 59l329 372h-247l12 62h333zM469 747l-150 -153h-66l-90 153h63l65 -106l108 106h70z" />
    <glyph glyph-name="onehalf" unicode="&#xbd;" horiz-adv-x="758" 
d="M728 332c0 -52 -34 -93 -63 -123l-155 -159h168l-11 -50h-237l11 50l188 193c29 29 43 53 43 85c0 29 -13 53 -52 53c-52 0 -69 -34 -75 -67h-56c10 51 39 117 135 117c71 0 104 -44 104 -99zM623 712l-459 -712h-60l459 712h60zM269 712l-86 -427h-55l72 360l-95 -71
l13 68l95 70h56z" />
    <glyph glyph-name="onequarter" unicode="&#xbc;" horiz-adv-x="744" 
d="M634 712l-458 -712h-60l458 712h60zM683 427l-204 -310h104l21 104h54l-21 -104h45l-9 -51h-46l-13 -66h-54l13 66h-165l10 51l203 310h62zM269 712l-86 -427h-55l72 360l-95 -71l13 68l95 70h56z" />
    <glyph glyph-name="onesuperior" unicode="&#xb9;" horiz-adv-x="249" 
d="M269 712l-86 -427h-55l72 360l-95 -71l14 69l94 69h56z" />
    <glyph glyph-name="threequarters" unicode="&#xbe;" horiz-adv-x="794" 
d="M359 614c0 -50 -23 -92 -72 -112c28 -16 42 -38 42 -85c0 -70 -46 -137 -142 -137c-85 0 -112 54 -112 94c0 11 1 18 2 24h56c-5 -43 15 -68 59 -68c36 0 81 26 81 87c0 38 -13 62 -59 62h-9l10 48h8c59 0 80 44 80 85c0 40 -26 54 -51 54c-40 0 -65 -17 -77 -64h-56
c19 83 70 114 137 114c62 0 103 -40 103 -102zM689 712l-459 -712h-59l458 712h60zM731 117l-10 -51h-46l-13 -66h-54l14 66h-166l10 51l203 310h62l-204 -310h104l21 104h54l-21 -104h46z" />
    <glyph glyph-name="threesuperior" unicode="&#xb3;" horiz-adv-x="338" 
d="M359 614c0 -50 -23 -92 -72 -112c28 -16 42 -38 42 -85c0 -70 -46 -137 -142 -137c-85 0 -112 54 -112 94c0 11 1 18 2 24h56c-5 -43 15 -68 59 -68c36 0 81 26 81 87c0 38 -13 62 -59 62h-9l10 48h8c59 0 80 44 80 85c0 40 -26 54 -51 54c-40 0 -65 -17 -77 -64h-56
c19 83 70 114 137 114c62 0 103 -40 103 -102z" />
    <glyph glyph-name="twosuperior" unicode="&#xb2;" horiz-adv-x="325" 
d="M352 617c0 -52 -33 -93 -62 -123l-156 -159h168l-10 -50h-237l10 50l188 193c29 29 43 53 43 85c0 29 -13 53 -52 53c-52 0 -69 -34 -75 -67h-55c10 51 39 117 135 117c71 0 103 -44 103 -99z" />
    <glyph glyph-name="brokenbar" unicode="&#xa6;" horiz-adv-x="319" 
d="M298 786l-70 -350h-70l70 350h70zM196 276l-70 -350h-69l69 350h70z" />
    <glyph glyph-name="minus" unicode="&#x2212;" 
d="M458 303l-12 -64h-397l13 64h396z" />
    <glyph glyph-name="multiply" unicode="&#xd7;" 
d="M468 416l-172 -149l115 -152l-49 -43l-115 152l-172 -149l-37 48l172 149l-115 153l50 43l115 -153l172 149z" />
    <glyph glyph-name="Adieresis" unicode="&#xc4;" horiz-adv-x="581" 
d="M521 0h-74l-22 162h-296l-87 -162h-78l389 712h61zM418 223l-53 384l-204 -384h257zM542 872l-17 -88h-71l18 88h70zM341 872l-18 -88h-69l17 88h70z" />
    <glyph glyph-name="Aring" unicode="&#xc5;" horiz-adv-x="581" 
d="M521 0h-74l-22 162h-296l-87 -162h-78l389 712h61zM418 223l-53 384l-204 -384h257zM509 867c0 -66 -53 -119 -118 -119s-117 53 -117 119s52 117 117 117s118 -51 118 -117zM462 867c0 38 -34 69 -71 69s-70 -31 -70 -69s33 -71 70 -71s71 33 71 71z" />
    <glyph glyph-name="Ccedilla" unicode="&#xc7;" horiz-adv-x="607" 
d="M592 509h-73c0 88 -49 146 -131 146c-55 0 -100 -22 -138 -60c-40 -40 -57 -98 -84 -239c-18 -93 -24 -137 -24 -168c0 -83 62 -131 134 -131c98 0 162 72 190 146h74c-42 -132 -146 -209 -267 -209c-112 0 -204 69 -204 192c0 25 4 66 24 170c30 160 47 225 106 284
c47 47 117 78 189 78c136 0 203 -88 204 -209zM297 -66l-83 -146h-77l96 146h64z" />
    <glyph glyph-name="Eacute" unicode="&#xc9;" horiz-adv-x="572" 
d="M611 712l-13 -63h-346l-52 -258h297l-12 -63h-297l-54 -265h353l-12 -63h-426l143 712h419zM520 927l-130 -151h-66l112 151h84z" />
    <glyph glyph-name="Ntilde" unicode="&#xd1;" horiz-adv-x="696" 
d="M692 712l-143 -712h-67l-245 577l-116 -577h-72l143 712h67l245 -577l115 577h73zM597 840c-35 -33 -64 -47 -97 -47c-29 0 -51 11 -69 24c-22 16 -30 19 -51 19s-38 -10 -62 -34l-30 39c34 33 63 47 96 47c29 0 51 -11 70 -24c21 -15 30 -19 51 -19c20 0 37 11 62 34z
" />
    <glyph glyph-name="Odieresis" unicode="&#xd6;" horiz-adv-x="617" 
d="M590 526c0 -31 -7 -72 -25 -170c-30 -160 -48 -225 -106 -283c-49 -49 -120 -79 -193 -79c-114 0 -197 77 -197 192c0 31 6 72 24 170c30 160 48 225 106 283c49 49 120 79 193 79c114 0 198 -77 198 -192zM516 522c0 88 -63 133 -126 133c-55 0 -103 -22 -141 -61
c-37 -37 -55 -88 -83 -238c-18 -95 -24 -134 -24 -166c0 -88 63 -133 126 -133c55 0 103 22 141 61c37 37 55 88 83 238c18 95 24 134 24 166zM560 872l-17 -88h-71l18 88h70zM359 872l-18 -88h-69l17 88h70z" />
    <glyph glyph-name="Udieresis" unicode="&#xdc;" horiz-adv-x="649" 
d="M654 712l-95 -478c-31 -156 -139 -240 -279 -240c-95 0 -198 58 -198 193c0 21 4 45 7 61l92 464h73l-94 -471c-2 -11 -5 -34 -5 -51c0 -64 36 -132 132 -132c90 0 177 60 202 188l92 466h73zM580 872l-17 -88h-71l18 88h70zM379 872l-18 -88h-69l17 88h70z" />
    <glyph glyph-name="aacute" unicode="&#xe1;" horiz-adv-x="501" 
d="M443 371c0 -10 -3 -27 -5 -39l-66 -332h-69l11 49c-37 -37 -79 -55 -141 -55c-78 0 -148 32 -148 120c0 41 12 84 44 115c40 39 89 52 145 52h144l11 52c2 9 4 21 4 33c0 48 -38 73 -99 73s-97 -19 -133 -59l-41 48c44 48 95 71 178 71c70 0 165 -22 165 -128zM348 229
h-127c-75 0 -127 -39 -127 -111c0 -42 29 -65 98 -65c43 0 79 13 105 39c20 19 34 47 40 80zM453 740l-130 -151h-66l112 151h84z" />
    <glyph glyph-name="agrave" unicode="&#xe0;" horiz-adv-x="501" 
d="M443 371c0 -10 -3 -27 -5 -39l-66 -332h-69l11 49c-37 -37 -79 -55 -141 -55c-78 0 -148 32 -148 120c0 41 12 84 44 115c40 39 89 52 145 52h144l11 52c2 9 4 21 4 33c0 48 -38 73 -99 73s-97 -19 -133 -59l-41 48c44 48 95 71 178 71c70 0 165 -22 165 -128zM348 229
h-127c-75 0 -127 -39 -127 -111c0 -42 29 -65 98 -65c43 0 79 13 105 39c20 19 34 47 40 80zM348 589h-60l-72 151h80z" />
    <glyph glyph-name="acircumflex" unicode="&#xe2;" horiz-adv-x="501" 
d="M443 371c0 -10 -3 -27 -5 -39l-66 -332h-69l11 49c-37 -37 -79 -55 -141 -55c-78 0 -148 32 -148 120c0 41 12 84 44 115c40 39 89 52 145 52h144l11 52c2 9 4 21 4 33c0 48 -38 73 -99 73s-97 -19 -133 -59l-41 48c44 48 95 71 178 71c70 0 165 -22 165 -128zM348 229
h-127c-75 0 -127 -39 -127 -111c0 -42 29 -65 98 -65c43 0 79 13 105 39c20 19 34 47 40 80zM459 594h-63l-64 106l-109 -106h-69l150 153h65z" />
    <glyph glyph-name="adieresis" unicode="&#xe4;" horiz-adv-x="501" 
d="M443 371c0 -10 -3 -27 -5 -39l-66 -332h-69l11 49c-37 -37 -79 -55 -141 -55c-78 0 -148 32 -148 120c0 41 12 84 44 115c40 39 89 52 145 52h144l11 52c2 9 4 21 4 33c0 48 -38 73 -99 73s-97 -19 -133 -59l-41 48c44 48 95 71 178 71c70 0 165 -22 165 -128zM348 229
h-127c-75 0 -127 -39 -127 -111c0 -42 29 -65 98 -65c43 0 79 13 105 39c20 19 34 47 40 80zM464 685l-17 -88h-71l18 88h70zM263 685l-18 -88h-69l17 88h70z" />
    <glyph glyph-name="atilde" unicode="&#xe3;" horiz-adv-x="501" 
d="M443 371c0 -10 -3 -27 -5 -39l-66 -332h-69l11 49c-37 -37 -79 -55 -141 -55c-78 0 -148 32 -148 120c0 41 12 84 44 115c40 39 89 52 145 52h144l11 52c2 9 4 21 4 33c0 48 -38 73 -99 73s-97 -19 -133 -59l-41 48c44 48 95 71 178 71c70 0 165 -22 165 -128zM348 229
h-127c-75 0 -127 -39 -127 -111c0 -42 29 -65 98 -65c43 0 79 13 105 39c20 19 34 47 40 80zM470 654c-35 -33 -64 -47 -97 -47c-29 0 -51 11 -69 24c-22 15 -30 19 -51 19c-20 0 -37 -11 -62 -34l-30 39c35 33 63 47 96 47c29 0 52 -11 70 -24c22 -16 30 -19 51 -19
c20 0 37 10 62 34z" />
    <glyph glyph-name="aring" unicode="&#xe5;" horiz-adv-x="501" 
d="M443 371c0 -10 -3 -27 -5 -39l-66 -332h-69l11 49c-37 -37 -79 -55 -141 -55c-78 0 -148 32 -148 120c0 41 12 84 44 115c40 39 89 52 145 52h144l11 52c2 9 4 21 4 33c0 48 -38 73 -99 73s-97 -19 -133 -59l-41 48c44 48 95 71 178 71c70 0 165 -22 165 -128zM441 687
c0 -66 -53 -119 -118 -119c-64 0 -117 53 -117 119s53 117 117 117c65 0 118 -51 118 -117zM348 229h-127c-75 0 -127 -39 -127 -111c0 -42 29 -65 98 -65c43 0 79 13 105 39c20 19 34 47 40 80zM394 687c0 38 -33 69 -71 69c-37 0 -70 -31 -70 -69s33 -71 70 -71
c38 0 71 33 71 71z" />
    <glyph glyph-name="ccedilla" unicode="&#xe7;" horiz-adv-x="466" 
d="M450 426l-52 -44c-26 39 -53 55 -97 55c-38 0 -76 -14 -109 -48c-36 -38 -55 -93 -64 -142c-5 -26 -8 -48 -8 -74c0 -83 52 -117 107 -117c47 0 81 17 119 57l41 -50c-47 -47 -104 -69 -164 -69c-116 0 -173 78 -173 177c0 20 2 50 7 76c30 164 124 252 251 252
c69 0 110 -28 142 -73zM242 -66l-83 -146h-77l96 146h64z" />
    <glyph glyph-name="eacute" unicode="&#xe9;" horiz-adv-x="506" 
d="M453 330c0 -25 -4 -63 -12 -101h-317c-4 -21 -6 -40 -6 -62c0 -65 32 -112 106 -112c58 0 96 20 138 58l42 -47c-52 -49 -111 -72 -186 -72c-97 0 -168 56 -168 170c0 148 68 335 243 335c105 0 160 -75 160 -169zM385 330c0 76 -44 110 -95 110
c-72 0 -128 -50 -157 -160h248c2 16 4 30 4 50zM469 740l-130 -151h-66l112 151h84z" />
    <glyph glyph-name="egrave" unicode="&#xe8;" horiz-adv-x="506" 
d="M453 330c0 -25 -4 -63 -12 -101h-317c-4 -21 -6 -40 -6 -62c0 -65 32 -112 106 -112c58 0 96 20 138 58l42 -47c-52 -49 -111 -72 -186 -72c-97 0 -168 56 -168 170c0 148 68 335 243 335c105 0 160 -75 160 -169zM385 330c0 76 -44 110 -95 110
c-72 0 -128 -50 -157 -160h248c2 16 4 30 4 50zM364 589h-60l-72 151h80z" />
    <glyph glyph-name="ecircumflex" unicode="&#xea;" horiz-adv-x="506" 
d="M453 330c0 -25 -4 -63 -12 -101h-317c-4 -21 -6 -40 -6 -62c0 -65 32 -112 106 -112c58 0 96 20 138 58l42 -47c-52 -49 -111 -72 -186 -72c-97 0 -168 56 -168 170c0 148 68 335 243 335c105 0 160 -75 160 -169zM385 330c0 76 -44 110 -95 110
c-72 0 -128 -50 -157 -160h248c2 16 4 30 4 50zM474 594h-63l-64 106l-109 -106h-69l150 153h65z" />
    <glyph glyph-name="edieresis" unicode="&#xeb;" horiz-adv-x="506" 
d="M453 330c0 -25 -4 -63 -12 -101h-317c-4 -21 -6 -40 -6 -62c0 -65 32 -112 106 -112c58 0 96 20 138 58l42 -47c-52 -49 -111 -72 -186 -72c-97 0 -168 56 -168 170c0 148 68 335 243 335c105 0 160 -75 160 -169zM385 330c0 76 -44 110 -95 110
c-72 0 -128 -50 -157 -160h248c2 16 4 30 4 50zM478 685l-17 -88h-71l18 88h70zM277 685l-18 -88h-69l17 88h70z" />
    <glyph glyph-name="iacute" unicode="&#xed;" horiz-adv-x="241" 
d="M205 493l-98 -493h-70l98 493h70zM328 740l-130 -151h-66l112 151h84z" />
    <glyph glyph-name="igrave" unicode="&#xec;" horiz-adv-x="241" 
d="M205 493l-98 -493h-70l98 493h70zM223 589h-60l-72 151h80z" />
    <glyph glyph-name="icircumflex" unicode="&#xee;" horiz-adv-x="241" 
d="M205 493l-98 -493h-70l98 493h70zM333 594h-63l-64 106l-109 -106h-69l150 153h65z" />
    <glyph glyph-name="idieresis" unicode="&#xef;" horiz-adv-x="241" 
d="M205 493l-98 -493h-70l98 493h70zM335 685l-17 -88h-71l18 88h70zM134 685l-18 -88h-69l17 88h70z" />
    <glyph glyph-name="ntilde" unicode="&#xf1;" horiz-adv-x="535" 
d="M474 360c0 -19 -2 -33 -5 -49l-63 -311h-70l61 304c3 16 5 33 5 46c0 59 -38 87 -89 87c-34 0 -122 -16 -146 -135l-60 -302h-70l98 493h69l-11 -55c33 38 81 61 146 61c75 0 135 -49 135 -139zM500 654c-35 -33 -64 -47 -97 -47c-29 0 -51 11 -69 24
c-22 15 -31 19 -51 19c-21 0 -38 -11 -62 -34l-30 39c34 33 63 47 96 47c28 0 51 -11 70 -24c21 -16 30 -19 51 -19c20 0 37 10 62 34z" />
    <glyph glyph-name="oacute" unicode="&#xf3;" horiz-adv-x="502" 
d="M452 336c0 -30 -5 -66 -9 -89c-21 -108 -53 -163 -93 -199c-41 -37 -91 -54 -141 -54c-56 0 -159 28 -159 164c0 30 5 66 9 89c21 108 53 163 93 199c41 37 91 53 141 53c56 0 159 -27 159 -163zM383 333c0 76 -47 104 -95 104c-34 0 -69 -15 -92 -38
c-30 -30 -50 -71 -66 -152c-7 -36 -11 -67 -11 -87c0 -76 47 -104 95 -104c34 0 69 16 92 39c30 30 50 71 66 152c7 36 11 66 11 86zM466 740l-130 -151h-66l112 151h84z" />
    <glyph glyph-name="ograve" unicode="&#xf2;" horiz-adv-x="502" 
d="M452 336c0 -30 -5 -66 -9 -89c-21 -108 -53 -163 -93 -199c-41 -37 -91 -54 -141 -54c-56 0 -159 28 -159 164c0 30 5 66 9 89c21 108 53 163 93 199c41 37 91 53 141 53c56 0 159 -27 159 -163zM383 333c0 76 -47 104 -95 104c-34 0 -69 -15 -92 -38
c-30 -30 -50 -71 -66 -152c-7 -36 -11 -67 -11 -87c0 -76 47 -104 95 -104c34 0 69 16 92 39c30 30 50 71 66 152c7 36 11 66 11 86zM343 589h-60l-72 151h80z" />
    <glyph glyph-name="ocircumflex" unicode="&#xf4;" horiz-adv-x="502" 
d="M452 336c0 -30 -5 -66 -9 -89c-21 -108 -53 -163 -93 -199c-41 -37 -91 -54 -141 -54c-56 0 -159 28 -159 164c0 30 5 66 9 89c21 108 53 163 93 199c41 37 91 53 141 53c56 0 159 -27 159 -163zM383 333c0 76 -47 104 -95 104c-34 0 -69 -15 -92 -38
c-30 -30 -50 -71 -66 -152c-7 -36 -11 -67 -11 -87c0 -76 47 -104 95 -104c34 0 69 16 92 39c30 30 50 71 66 152c7 36 11 66 11 86zM471 594h-63l-64 106l-109 -106h-69l150 153h65z" />
    <glyph glyph-name="odieresis" unicode="&#xf6;" horiz-adv-x="502" 
d="M452 336c0 -30 -5 -66 -9 -89c-21 -108 -53 -163 -93 -199c-41 -37 -91 -54 -141 -54c-56 0 -159 28 -159 164c0 30 5 66 9 89c21 108 53 163 93 199c41 37 91 53 141 53c56 0 159 -27 159 -163zM383 333c0 76 -47 104 -95 104c-34 0 -69 -15 -92 -38
c-30 -30 -50 -71 -66 -152c-7 -36 -11 -67 -11 -87c0 -76 47 -104 95 -104c34 0 69 16 92 39c30 30 50 71 66 152c7 36 11 66 11 86zM476 685l-17 -88h-71l18 88h70zM275 685l-18 -88h-69l17 88h70z" />
    <glyph glyph-name="otilde" unicode="&#xf5;" horiz-adv-x="502" 
d="M452 336c0 -30 -5 -66 -9 -89c-21 -108 -53 -163 -93 -199c-41 -37 -91 -54 -141 -54c-56 0 -159 28 -159 164c0 30 5 66 9 89c21 108 53 163 93 199c41 37 91 53 141 53c56 0 159 -27 159 -163zM383 333c0 76 -47 104 -95 104c-34 0 -69 -15 -92 -38
c-30 -30 -50 -71 -66 -152c-7 -36 -11 -67 -11 -87c0 -76 47 -104 95 -104c34 0 69 16 92 39c30 30 50 71 66 152c7 36 11 66 11 86zM483 654c-35 -33 -64 -47 -97 -47c-29 0 -51 11 -69 24c-22 15 -30 19 -51 19c-20 0 -37 -11 -62 -34l-30 39c35 33 63 47 96 47
c29 0 52 -11 70 -24c22 -16 30 -19 51 -19c20 0 37 10 62 34z" />
    <glyph glyph-name="uacute" unicode="&#xfa;" horiz-adv-x="535" 
d="M498 493l-98 -493h-69l10 55c-33 -38 -80 -61 -145 -61c-75 0 -136 49 -136 139c0 19 3 33 6 49l62 311h70l-61 -304c-3 -16 -5 -33 -5 -46c0 -59 39 -87 90 -87c34 0 121 16 145 135l60 302h71zM478 740l-130 -151h-66l112 151h84z" />
    <glyph glyph-name="ugrave" unicode="&#xf9;" horiz-adv-x="535" 
d="M498 493l-98 -493h-69l10 55c-33 -38 -80 -61 -145 -61c-75 0 -136 49 -136 139c0 19 3 33 6 49l62 311h70l-61 -304c-3 -16 -5 -33 -5 -46c0 -59 39 -87 90 -87c34 0 121 16 145 135l60 302h71zM373 589h-60l-72 151h80z" />
    <glyph glyph-name="ucircumflex" unicode="&#xfb;" horiz-adv-x="535" 
d="M498 493l-98 -493h-69l10 55c-33 -38 -80 -61 -145 -61c-75 0 -136 49 -136 139c0 19 3 33 6 49l62 311h70l-61 -304c-3 -16 -5 -33 -5 -46c0 -59 39 -87 90 -87c34 0 121 16 145 135l60 302h71zM483 594h-63l-64 106l-109 -106h-69l150 153h65z" />
    <glyph glyph-name="udieresis" unicode="&#xfc;" horiz-adv-x="535" 
d="M498 493l-98 -493h-69l10 55c-33 -38 -80 -61 -145 -61c-75 0 -136 49 -136 139c0 19 3 33 6 49l62 311h70l-61 -304c-3 -16 -5 -33 -5 -46c0 -59 39 -87 90 -87c34 0 121 16 145 135l60 302h71zM488 685l-17 -88h-71l18 88h70zM287 685l-18 -88h-69l17 88h70z" />
    <glyph glyph-name="degree" unicode="&#xb0;" horiz-adv-x="456" 
d="M450 556c0 -91 -71 -161 -162 -161s-161 70 -161 161s70 162 161 162s162 -71 162 -162zM391 556c0 59 -45 105 -103 105s-102 -45 -102 -105s44 -105 102 -105s103 45 103 105z" />
    <glyph glyph-name="registered" unicode="&#xae;" horiz-adv-x="835" 
d="M781 356c0 -190 -154 -344 -344 -344s-344 154 -344 344s154 344 344 344s344 -154 344 -344zM726 356c0 161 -129 293 -289 293s-288 -132 -288 -293s128 -293 288 -293s289 132 289 293zM582 168h-62l-86 154h-56v-154h-54v377h129c66 0 119 -50 119 -113
c0 -55 -34 -90 -80 -104zM518 432c0 37 -30 66 -71 66h-69v-131h69c41 0 71 28 71 65z" />
    <glyph glyph-name="copyright" unicode="&#xa9;" horiz-adv-x="835" 
d="M781 356c0 -190 -154 -344 -344 -344s-344 154 -344 344s154 344 344 344s344 -154 344 -344zM725 356c0 160 -129 292 -288 292s-287 -132 -287 -292s128 -292 287 -292s288 132 288 292zM566 213c-36 -32 -71 -50 -124 -50c-110 0 -169 82 -169 193s59 194 169 194
c53 0 85 -17 124 -51l-35 -35c-32 28 -54 37 -89 37c-86 0 -116 -65 -116 -145s30 -145 116 -145c35 0 57 9 89 37z" />
    <glyph glyph-name="trademark" unicode="&#x2122;" horiz-adv-x="800" 
d="M838 712l-85 -427h-56l62 310l-135 -201h-54l-56 205l-64 -314h-55l84 427h55l72 -259l175 259h57zM407 712l-10 -51h-111l-76 -376h-55l75 376h-114l11 51h280z" />
    <glyph glyph-name="plusminus" unicode="&#xb1;" 
d="M467 352l-13 -64h-165l-35 -179h-65l36 179h-167l13 64h167l35 177h65l-36 -177h165zM412 64l-13 -64h-397l13 64h397z" />
    <glyph glyph-name="mu" unicode="&#xb5;" horiz-adv-x="536" 
d="M499 493l-98 -493h-69l10 55c-33 -38 -80 -61 -145 -61c-38 0 -70 15 -90 40l-50 -253h-70l142 712h70l-61 -304c-3 -16 -5 -33 -5 -46c0 -59 39 -87 90 -87c34 0 121 16 145 135l60 302h71z" />
    <glyph glyph-name="logicalnot" unicode="&#xac;" 
d="M460 308l-41 -204h-64l28 139h-335l13 65h399z" />
    <glyph glyph-name="nbspace" unicode="&#xa0;" horiz-adv-x="236" 
 />
    <glyph glyph-name="Agrave" unicode="&#xc0;" horiz-adv-x="581" 
d="M521 0h-74l-22 162h-296l-87 -162h-78l389 712h61zM418 223l-53 384l-204 -384h257zM416 776h-60l-72 151h80z" />
    <glyph glyph-name="Atilde" unicode="&#xc3;" horiz-adv-x="581" 
d="M521 0h-74l-22 162h-296l-87 -162h-78l389 712h61zM418 223l-53 384l-204 -384h257zM538 840c-35 -33 -64 -47 -97 -47c-29 0 -50 11 -69 24c-21 16 -30 19 -51 19c-20 0 -37 -10 -62 -34l-30 39c35 33 63 47 96 47c29 0 52 -11 70 -24c22 -15 30 -19 51 -19s38 11 62 34
z" />
    <glyph glyph-name="Otilde" unicode="&#xd5;" horiz-adv-x="617" 
d="M590 526c0 -31 -7 -72 -25 -170c-30 -160 -48 -225 -106 -283c-49 -49 -120 -79 -193 -79c-114 0 -197 77 -197 192c0 31 6 72 24 170c30 160 48 225 106 283c49 49 120 79 193 79c114 0 198 -77 198 -192zM516 522c0 88 -63 133 -126 133c-55 0 -103 -22 -141 -61
c-37 -37 -55 -88 -83 -238c-18 -95 -24 -134 -24 -166c0 -88 63 -133 126 -133c55 0 103 22 141 61c37 37 55 88 83 238c18 95 24 134 24 166zM562 840c-35 -33 -64 -47 -97 -47c-29 0 -51 11 -69 24c-22 16 -31 19 -51 19c-21 0 -38 -10 -62 -34l-30 39c34 33 63 47 96 47
c28 0 51 -11 70 -24c21 -15 30 -19 51 -19c20 0 37 11 62 34z" />
    <glyph glyph-name="divide" unicode="&#xf7;" 
d="M459 302l-13 -64h-399l13 64h399zM335 484l-16 -84h-83l17 84h82zM270 140l-16 -83h-83l17 83h82z" />
    <glyph glyph-name="ydieresis" unicode="&#xff;" horiz-adv-x="424" 
d="M462 493l-328 -611c-17 -31 -29 -47 -42 -59c-25 -23 -55 -33 -102 -33h-31l13 62h21c47 0 63 16 89 65l49 94l-71 482h70l51 -397l204 397h77zM432 685l-17 -88h-71l18 88h70zM231 685l-18 -88h-69l17 88h70z" />
    <glyph glyph-name="Ydieresis" unicode="&#x178;" horiz-adv-x="490" 
d="M575 712l-282 -421l-59 -291h-73l60 296l-121 416h76l94 -344l224 344h81zM496 872l-17 -88h-71l18 88h70zM295 872l-18 -88h-69l17 88h70z" />
    <glyph glyph-name="Acircumflex" unicode="&#xc2;" horiz-adv-x="581" 
d="M521 0h-74l-22 162h-296l-87 -162h-78l389 712h61zM418 223l-53 384l-204 -384h257zM529 781h-63l-64 106l-109 -106h-69l150 153h65z" />
    <glyph glyph-name="Ecircumflex" unicode="&#xca;" horiz-adv-x="572" 
d="M611 712l-13 -63h-346l-52 -258h297l-12 -63h-297l-54 -265h353l-12 -63h-426l143 712h419zM540 781h-63l-64 106l-109 -106h-69l150 153h65z" />
    <glyph glyph-name="Aacute" unicode="&#xc1;" horiz-adv-x="581" 
d="M521 0h-74l-22 162h-296l-87 -162h-78l389 712h61zM418 223l-53 384l-204 -384h257zM522 927l-130 -151h-66l112 151h84z" />
    <glyph glyph-name="Edieresis" unicode="&#xcb;" horiz-adv-x="572" 
d="M611 712l-13 -63h-346l-52 -258h297l-12 -63h-297l-54 -265h353l-12 -63h-426l143 712h419zM542 872l-17 -88h-71l18 88h70zM341 872l-18 -88h-69l17 88h70z" />
    <glyph glyph-name="Egrave" unicode="&#xc8;" horiz-adv-x="572" 
d="M611 712l-13 -63h-346l-52 -258h297l-12 -63h-297l-54 -265h353l-12 -63h-426l143 712h419zM429 776h-60l-72 151h80z" />
    <glyph glyph-name="Iacute" unicode="&#xcd;" horiz-adv-x="268" 
d="M264 712l-143 -712h-72l143 712h72zM366 927l-130 -151h-66l112 151h84z" />
    <glyph glyph-name="Icircumflex" unicode="&#xce;" horiz-adv-x="268" 
d="M264 712l-143 -712h-72l143 712h72zM380 781h-63l-64 106l-109 -106h-69l150 153h65z" />
    <glyph glyph-name="Idieresis" unicode="&#xcf;" horiz-adv-x="268" 
d="M264 712l-143 -712h-72l143 712h72zM389 872l-17 -88h-71l18 88h70zM188 872l-18 -88h-69l17 88h70z" />
    <glyph glyph-name="Igrave" unicode="&#xcc;" horiz-adv-x="268" 
d="M264 712l-143 -712h-72l143 712h72zM263 776h-60l-72 151h80z" />
    <glyph glyph-name="Oacute" unicode="&#xd3;" horiz-adv-x="617" 
d="M590 526c0 -31 -7 -72 -25 -170c-30 -160 -48 -225 -106 -283c-49 -49 -120 -79 -193 -79c-114 0 -197 77 -197 192c0 31 6 72 24 170c30 160 48 225 106 283c49 49 120 79 193 79c114 0 198 -77 198 -192zM516 522c0 88 -63 133 -126 133c-55 0 -103 -22 -141 -61
c-37 -37 -55 -88 -83 -238c-18 -95 -24 -134 -24 -166c0 -88 63 -133 126 -133c55 0 103 22 141 61c37 37 55 88 83 238c18 95 24 134 24 166zM545 927l-130 -151h-66l112 151h84z" />
    <glyph glyph-name="Ocircumflex" unicode="&#xd4;" horiz-adv-x="617" 
d="M590 526c0 -31 -7 -72 -25 -170c-30 -160 -48 -225 -106 -283c-49 -49 -120 -79 -193 -79c-114 0 -197 77 -197 192c0 31 6 72 24 170c30 160 48 225 106 283c49 49 120 79 193 79c114 0 198 -77 198 -192zM516 522c0 88 -63 133 -126 133c-55 0 -103 -22 -141 -61
c-37 -37 -55 -88 -83 -238c-18 -95 -24 -134 -24 -166c0 -88 63 -133 126 -133c55 0 103 22 141 61c37 37 55 88 83 238c18 95 24 134 24 166zM553 781h-63l-64 106l-109 -106h-69l150 153h65z" />
    <glyph glyph-name="Ograve" unicode="&#xd2;" horiz-adv-x="617" 
d="M590 526c0 -31 -7 -72 -25 -170c-30 -160 -48 -225 -106 -283c-49 -49 -120 -79 -193 -79c-114 0 -197 77 -197 192c0 31 6 72 24 170c30 160 48 225 106 283c49 49 120 79 193 79c114 0 198 -77 198 -192zM516 522c0 88 -63 133 -126 133c-55 0 -103 -22 -141 -61
c-37 -37 -55 -88 -83 -238c-18 -95 -24 -134 -24 -166c0 -88 63 -133 126 -133c55 0 103 22 141 61c37 37 55 88 83 238c18 95 24 134 24 166zM440 776h-60l-72 151h80z" />
    <glyph glyph-name="Uacute" unicode="&#xda;" horiz-adv-x="649" 
d="M654 712l-95 -478c-31 -156 -139 -240 -279 -240c-95 0 -198 58 -198 193c0 21 4 45 7 61l92 464h73l-94 -471c-2 -11 -5 -34 -5 -51c0 -64 36 -132 132 -132c90 0 177 60 202 188l92 466h73zM568 927l-130 -151h-66l112 151h84z" />
    <glyph glyph-name="Ucircumflex" unicode="&#xdb;" horiz-adv-x="649" 
d="M654 712l-95 -478c-31 -156 -139 -240 -279 -240c-95 0 -198 58 -198 193c0 21 4 45 7 61l92 464h73l-94 -471c-2 -11 -5 -34 -5 -51c0 -64 36 -132 132 -132c90 0 177 60 202 188l92 466h73zM577 781h-63l-64 106l-109 -106h-69l150 153h65z" />
    <glyph glyph-name="Ugrave" unicode="&#xd9;" horiz-adv-x="649" 
d="M654 712l-95 -478c-31 -156 -139 -240 -279 -240c-95 0 -198 58 -198 193c0 21 4 45 7 61l92 464h73l-94 -471c-2 -11 -5 -34 -5 -51c0 -64 36 -132 132 -132c90 0 177 60 202 188l92 466h73zM463 776h-60l-72 151h80z" />
    <glyph glyph-name="Eth" unicode="&#xd0;" horiz-adv-x="653" 
d="M626 518c0 -36 -5 -70 -21 -154c-32 -168 -58 -241 -122 -299c-48 -43 -114 -65 -185 -65h-236l66 331h-73l11 56h73l66 325h222c96 0 199 -44 199 -194zM554 515c0 80 -43 134 -141 134h-148l-53 -262h154l-11 -56h-154l-54 -268h147c51 0 102 13 144 51
c43 39 67 106 94 250c16 83 22 117 22 151z" />
    <glyph glyph-name="Euro" unicode="&#x20ac;" horiz-adv-x="643" 
d="M625 509h-73c0 88 -49 146 -131 146c-51 0 -97 -18 -139 -60c-29 -29 -47 -67 -64 -140h209l-9 -47h-210l-19 -98h210l-9 -47h-208c-5 -29 -7 -54 -7 -75c0 -83 62 -131 134 -131c79 0 156 55 190 146h74c-33 -104 -119 -209 -270 -209c-109 0 -201 69 -201 192
c0 20 2 42 8 77h-64l8 47h64l18 98h-63l9 47h64c19 84 39 138 86 185s117 78 189 78c136 0 203 -88 204 -209z" />
    <glyph glyph-name="eurocurrency" horiz-adv-x="505" 
d="M425 334c0 -90 -65 -155 -155 -155s-155 65 -155 155s65 155 155 155s155 -65 155 -155z" />
    </font>
</defs>
</svg>
