<svg id="Layer_1" data-name="Layer 1" xmlns="http://www.w3.org/2000/svg" viewBox="0 0 196 71"><defs><style>.cls-1{fill:#fff;}</style></defs><title>header-logo</title><rect class="cls-1" width="196" height="71"/><path d="M29.36,62.76V40H21V62.76H11V8.27H21V30.16h8.33V8.27h10V62.76Z"/><path d="M65.85,62.76l-1.62-8.5H52.65L51,62.76H40.58L53.5,8.27h9.88L76.3,62.76ZM58.44,24.27l-3.88,20.2h7.76Z"/><path d="M102.7,57.48a13,13,0,0,1-11,5.28H77.5V8.27H91.68a13,13,0,0,1,11,5.28c3.53,4.36,3.74,11.86,3.74,21.89S106.23,53.12,102.7,57.48Zm-7.48-37a4,4,0,0,0-3.74-2.37h-4V53h4a4,4,0,0,0,3.74-2.37c1.2-2.53,1.2-9.11,1.2-15.15S96.41,23,95.21,20.44Z"/><path d="M134.81,57.48a13,13,0,0,1-11,5.28H109.61V8.27H123.8a13,13,0,0,1,11,5.28c3.53,4.36,3.74,11.86,3.74,21.89S138.34,53.12,134.81,57.48Zm-7.48-37a4,4,0,0,0-3.74-2.37h-4V53h4a4,4,0,0,0,3.74-2.37c1.2-2.53,1.2-9.11,1.2-15.15S128.53,23,127.33,20.44Z"/><path d="M141.73,62.76V8.27h10V62.76Z"/><path d="M174,62.76l-5-17.37-5,17.37H153L163.26,34.6,153.73,8.27h11L169,24.58l4.24-16.3h11L174.41,34.6,185,62.76Z"/></svg>